<?xml version="1.0" standalone="no"?>
<!DOCTYPE svg PUBLIC "-//W3C//DTD SVG 1.1//EN" "http://www.w3.org/Graphics/SVG/1.1/DTD/svg11.dtd" >
<svg xmlns="http://www.w3.org/2000/svg">
<metadata>
Created by FontPrep 20130207 at Wed Jan 27 15:42:08 2016
 By Tyler Finck
copyright missing
</metadata>
<defs>
<font id="f8eb2817d1cb4470a3cb65d12d89dd87" horiz-adv-x='1024' >
  <font-face 
    font-family="LeagueSpartanTF-Bold"
    font-weight="700"
    font-stretch="normal"
    units-per-em="1000"
    panose-1="0 0 8 0 0 0 0 0 0 0"
    ascent="750"
    descent="-250"
    x-height="513"
    cap-height="825"
    bbox="-167 -351 1446 1187"
    underline-thickness="50"
    underline-position="-50"
    unicode-range="U+0020-FB04"
  />
<missing-glyph horiz-adv-x="342" 
 />
    <glyph glyph-name="f_f" unicode="ff" horiz-adv-x="750" 
d="M287 513h178v109q1 115 54 184t147 69q40 0 76.5 -11.5t53.5 -23.5l16 -11l-62 -125q-24 14 -53 14q-33 0 -44 -22.5t-11 -78.5v-104h118v-135h-118v-378h-177v378h-178v-378h-177v378h-74v135h74v109q1 115 54 184t147 69q40 0 76.5 -11.5t52.5 -23.5l17 -11l-62 -125
q-24 14 -53 14q-33 0 -44 -22.5t-11 -78.5v-104z" />
    <glyph glyph-name="fi" unicode="fi" horiz-adv-x="672" 
d="M612 0h-177v378h-168v-378h-177v378h-74v135h74v109q1 116 55 184.5t156 68.5q39 0 77 -8.5t64.5 -21t47.5 -24.5t32 -21l10 -8l-62 -125q-64 52 -117 52q-51 0 -68.5 -23t-17.5 -79v-104h345v-513z" />
    <glyph glyph-name="fl" unicode="fl" horiz-adv-x="672" 
d="M16 513h74v109q1 115 54 184t147 69q70 0 125 -32l-41 -139q-24 14 -53 14q-33 0 -44 -22.5t-11 -78.5v-104h118v-135h-118v-378h-177v378h-74v135zM612 0h-177v860h177v-860z" />
    <glyph glyph-name="f_f_i" unicode="ffi" horiz-adv-x="1047" 
d="M987 0h-177v378h-168v-378h-177v378h-178v-378h-177v378h-74v135h74v109q1 115 54 184t147 69q40 0 76.5 -11.5t52.5 -23.5l17 -11l-62 -125q-24 14 -53 14q-33 0 -44 -22.5t-11 -78.5v-104h178v109q1 116 55 184.5t156 68.5q39 0 77 -8.5t64.5 -21t47.5 -24.5t31 -21
l11 -8l-62 -125q-64 52 -117 52q-51 0 -68.5 -23t-17.5 -79v-104h345v-513z" />
    <glyph glyph-name="f_f_l" unicode="ffl" horiz-adv-x="1047" 
d="M36 513h74v109q1 115 54 184t147 69q40 0 76.5 -11.5t52.5 -23.5l17 -11l-62 -125q-24 14 -53 14q-33 0 -44 -22.5t-11 -78.5v-104h178v109q1 115 54 184t147 69q70 0 125 -32l-41 -139q-24 14 -53 14q-33 0 -44 -22.5t-11 -78.5v-104h118v-135h-118v-378h-177v378h-178
v-378h-177v378h-74v135zM987 0h-177v860h177v-860z" />
    <glyph glyph-name=".notdef" horiz-adv-x="342" 
 />
    <glyph glyph-name=".null" horiz-adv-x="0" 
 />
    <glyph glyph-name="nonmarkingreturn" horiz-adv-x="333" 
 />
    <glyph glyph-name="space" unicode=" " horiz-adv-x="320" 
 />
    <glyph glyph-name="exclam" unicode="!" horiz-adv-x="349" 
d="M239 270h-129l-24 590h177zM174 214q48 0 81.5 -33.5t33.5 -81.5q0 -47 -33.5 -80.5t-81.5 -33.5q-47 0 -80.5 33.5t-33.5 80.5q0 48 33.5 81.5t80.5 33.5z" />
    <glyph glyph-name="quotedbl" unicode="&#x22;" horiz-adv-x="513" 
d="M145 840q34 0 60 -23t26 -52v-4q0 -20 -15.5 -91.5t-31.5 -133.5l-15 -61h-67q-42 240 -42 286v4q0 29 25.5 52t59.5 23zM367 840q34 0 60 -23t26 -52v-4q0 -20 -15.5 -91.5t-31.5 -133.5l-15 -61h-67q-42 240 -42 286v4q0 29 25.5 52t59.5 23z" />
    <glyph glyph-name="numbersign" unicode="#" horiz-adv-x="833" 
d="M402 219h-108l-57 -219h-124l57 219h-102l32 121h102l38 146h-107l32 121h107l57 218h124l-57 -218h108l57 218h124l-57 -218h102l-32 -121h-102l-38 -146h107l-32 -121h-107l-57 -219h-124zM326 340h108l38 146h-108z" />
    <glyph glyph-name="dollar" unicode="$" horiz-adv-x="672" 
d="M415 822q52 -7 100.5 -25t71.5 -33l23 -14l-73 -144q-9 6 -24.5 15t-58.5 24t-79 15q-47 0 -71 -18.5t-24 -52.5q0 -16 10.5 -30.5t38 -30t46.5 -24t64 -27.5q2 -1 3.5 -1.5t3.5 -1.5q77 -33 132 -89.5t55 -128.5q0 -110 -59.5 -171t-158.5 -78v-145h-108v138
q-48 3 -94 14.5t-77 26.5t-55.5 29.5t-36.5 24.5l-11 10l91 152q12 -10 32 -25t72 -40t92 -25q114 0 114 78q0 17 -8.5 31.5t-29 28t-36.5 22t-51.5 25t-53.5 25.5q-72 36 -112 89.5t-40 115.5q0 89 59.5 153.5t144.5 83.5v144h108v-141z" />
    <glyph glyph-name="percent" unicode="%" horiz-adv-x="981" 
d="M23 643q0 86 64 141.5t159 55.5q93 0 156 -55.5t63 -141.5t-61.5 -141.5t-157.5 -55.5q-100 0 -161.5 55.5t-61.5 141.5zM673 825h118l-480 -825h-118zM152 643q0 -40 25.5 -65.5t66.5 -25.5q39 0 64.5 25.5t25.5 65.5t-26 66.5t-64 26.5q-39 0 -65.5 -26.5t-26.5 -66.5z
M516 182q0 86 61.5 141.5t161.5 55.5q96 0 157.5 -55.5t61.5 -141.5t-63 -141.5t-156 -55.5q-95 0 -159 55.5t-64 141.5zM645 182q0 -40 26.5 -66.5t65.5 -26.5q38 0 64 26.5t26 66.5t-25.5 65.5t-64.5 25.5q-41 0 -66.5 -25.5t-25.5 -65.5z" />
    <glyph glyph-name="ampersand" unicode="&#x26;" horiz-adv-x="833" 
d="M29 217q0 37 17 71t48 62t63 49t73 43q-83 104 -83 183q0 98 68.5 156.5t194.5 58.5q116 0 180.5 -65t64.5 -150q0 -35 -17 -68.5t-40.5 -57t-47.5 -41.5t-41 -27l-17 -9l110 -114q36 16 121 104l116 -114q-56 -64 -117 -113l178 -185h-237l-82 85q-38 -27 -56 -38.5
t-53.5 -29.5t-73 -25t-82.5 -7q-39 0 -77 6.5t-76.5 23t-67.5 41.5t-47.5 66.5t-18.5 94.5zM410 707q-36 0 -54 -23t-18 -59q0 -21 15 -46.5t30 -40.5l15 -14q92 50 92 101q0 82 -80 82zM328 339q-3 -1 -9 -3.5t-21 -12t-26 -21t-20.5 -30.5t-9.5 -40q0 -33 28 -51t65 -18
q30 0 61 11.5t47 23.5l16 12z" />
    <glyph glyph-name="quotesingle" unicode="'" horiz-adv-x="291" 
d="M145 840q34 0 60 -23t26 -52v-4q0 -20 -15.5 -91.5t-31.5 -133.5l-15 -61h-67q-42 240 -42 286v4q0 29 25.5 52t59.5 23z" />
    <glyph glyph-name="parenleft" unicode="(" horiz-adv-x="403" 
d="M230 -260q-7 9 -19 25t-42 71t-53 115.5t-42 154.5t-19 191q0 100 19.5 196t47.5 162t55.5 118t46.5 77l20 25l115 -49q-6 -7 -15.5 -20.5t-33.5 -62.5t-43 -105t-34 -148.5t-15 -192.5q0 -95 13 -182t32 -143.5t37.5 -100t31.5 -63.5l13 -19z" />
    <glyph glyph-name="parenright" unicode=")" horiz-adv-x="403" 
d="M58 -211q5 7 13.5 20.5t30.5 61t39 101.5t30.5 142t13.5 183q0 100 -14.5 191.5t-35.5 150.5t-41.5 103t-35.5 64l-14 20l115 49q8 -9 20.5 -26t45 -74.5t57.5 -120.5t45.5 -160t20.5 -197q0 -97 -18 -190t-44 -156.5t-51.5 -113t-43.5 -73.5l-18 -24z" />
    <glyph glyph-name="asterisk" unicode="*" horiz-adv-x="488" 
d="M288 743l114 35l26 -80l-114 -41l66 -99l-66 -45l-70 91l-70 -91l-66 45l66 99l-114 41l26 80l114 -35l1 117h86z" />
    <glyph glyph-name="plus" unicode="+" horiz-adv-x="633" 
d="M393 338v-180h-153v180h-180v153h180v180h153v-180h180v-153h-180z" />
    <glyph glyph-name="comma" unicode="," horiz-adv-x="349" 
d="M174 214q48 0 81.5 -33.5t33.5 -81.5q0 -148 -168 -287l-51 42q7 6 17.5 18t31 48.5t27.5 73.5q-38 9 -62 37.5t-24 67.5q0 48 33.5 81.5t80.5 33.5z" />
    <glyph glyph-name="hyphen" unicode="-" horiz-adv-x="442" 
d="M60 213v153h322v-153h-322z" />
    <glyph glyph-name="period" unicode="." horiz-adv-x="349" 
d="M174 214q48 0 81.5 -33.5t33.5 -81.5q0 -47 -33.5 -80.5t-81.5 -33.5q-47 0 -80.5 33.5t-33.5 80.5q0 48 33.5 81.5t80.5 33.5z" />
    <glyph glyph-name="slash" unicode="/" horiz-adv-x="611" 
d="M435 860h153l-412 -980h-153z" />
    <glyph glyph-name="zero" unicode="0" horiz-adv-x="727" 
d="M28 412q0 204 97 316t239 112t238.5 -112t96.5 -316q0 -111 -27 -195t-74.5 -133.5t-106 -74t-127.5 -24.5t-127.5 24.5t-106.5 74t-75 133.5t-27 195zM218 412q0 -131 38 -196.5t108 -65.5q69 0 107 65.5t38 196.5q0 125 -38.5 194t-106.5 69t-107 -69.5t-39 -193.5z
" />
    <glyph glyph-name="one" unicode="1" horiz-adv-x="393" 
d="M145 575l-116 -68v186l215 132h89v-825h-188v575z" />
    <glyph glyph-name="two" unicode="2" horiz-adv-x="724" 
d="M344 681q-49 0 -88 -39.5t-54 -78.5l-15 -39l-157 76q3 10 10 26t33 57.5t57.5 73t86 57.5t117.5 26q81 0 141.5 -20.5t93.5 -51t53.5 -72t26 -75.5t5.5 -71q0 -62 -33.5 -124t-81.5 -107t-96 -81t-81 -54l-34 -19h341v-165h-633v139q17 11 45 29t100 71t127.5 101.5
t100.5 107.5t45 102q0 131 -110 131z" />
    <glyph glyph-name="three" unicode="3" horiz-adv-x="665" 
d="M57 659q2 7 6 19.5t24 43.5t47 55t79 43.5t117 19.5q118 0 194.5 -67.5t76.5 -172.5q0 -98 -73 -155q105 -64 105 -189q0 -118 -86.5 -194.5t-219.5 -76.5q-71 0 -129 21t-90.5 50.5t-54 59.5t-29.5 51l-7 21l174 85q0 -5 1.5 -13.5t10.5 -30.5t22 -38.5t39.5 -30
t61.5 -13.5q53 0 86 29t33 80q0 53 -34.5 87t-84.5 34l-36 -6v123h41q39 0 69 30t30 74q0 39 -30.5 65t-71.5 26q-29 0 -52.5 -10.5t-36 -25.5t-21 -30t-10.5 -25l-3 -11z" />
    <glyph glyph-name="four" unicode="4" horiz-adv-x="636" 
d="M527 825v-486h96v-165h-96v-174h-176v174h-340v155l330 496h186zM351 339v235h-2l-147 -235h149z" />
    <glyph glyph-name="five" unicode="5" horiz-adv-x="641" 
d="M167 236q28 -94 145 -94q52 0 85 34t33 90q0 66 -27.5 103t-91.5 33q-25 -2 -46.5 -13t-30.5 -21l-8 -9l-171 22l69 444h441v-165h-285l-18 -121q24 7 48 7q63 0 114.5 -13.5t97 -45t71 -90.5t25.5 -141q0 -118 -86.5 -194.5t-219.5 -76.5q-121 0 -194 52.5t-100 126.5z
" />
    <glyph glyph-name="six" unicode="6" horiz-adv-x="689" 
d="M363 552q115 0 200 -81.5t85 -203.5q0 -123 -86.5 -202.5t-218.5 -79.5q-137 0 -222.5 79t-85.5 203q0 181 118 327l188 231h228l-222 -259q-15 -15 -19 -18q26 4 35 4zM344 143q55 0 91 35t36 90t-37 90.5t-90 35.5q-55 0 -91.5 -35.5t-36.5 -90.5q0 -56 35 -90.5
t93 -34.5z" />
    <glyph glyph-name="seven" unicode="7" horiz-adv-x="678" 
d="M80 825h575v-158l-378 -667h-222l380 660h-355v165z" />
    <glyph glyph-name="eight" unicode="8" horiz-adv-x="687" 
d="M613 632q0 -125 -106 -187q66 -30 105.5 -86t39.5 -137q0 -107 -92.5 -172t-215.5 -65q-126 0 -217.5 65t-91.5 172q0 157 144 223q-109 62 -109 187q0 94 82 151t191 57q111 0 190.5 -56.5t79.5 -151.5zM435 605q0 40 -25.5 66.5t-65.5 26.5t-66.5 -26.5t-26.5 -66.5
t27 -66t66 -26q40 0 65.5 25.5t25.5 66.5zM239 252q0 -46 29 -75.5t75 -29.5q45 0 75 29.5t30 75.5t-30.5 75.5t-74.5 29.5q-45 0 -74.5 -29.5t-29.5 -75.5z" />
    <glyph glyph-name="nine" unicode="9" horiz-adv-x="689" 
d="M338 840q138 0 223 -77.5t85 -204.5q0 -181 -118 -327l-188 -231h-228l222 259q15 15 19 18q-26 -4 -35 -4q-115 0 -200 81.5t-85 203.5q0 123 86.5 202.5t218.5 79.5zM210 557q0 -55 37 -90.5t90 -35.5q55 0 91.5 35.5t36.5 90.5q0 56 -35 90.5t-93 34.5q-55 0 -91 -35
t-36 -90z" />
    <glyph glyph-name="colon" unicode=":" horiz-adv-x="349" 
d="M174 554q48 0 81.5 -33.5t33.5 -81.5q0 -47 -33.5 -80.5t-81.5 -33.5q-47 0 -80.5 33.5t-33.5 80.5q0 48 33.5 81.5t80.5 33.5zM174 214q48 0 81.5 -33.5t33.5 -81.5q0 -47 -33.5 -80.5t-81.5 -33.5q-47 0 -80.5 33.5t-33.5 80.5q0 48 33.5 81.5t80.5 33.5z" />
    <glyph glyph-name="semicolon" unicode=";" horiz-adv-x="349" 
d="M174 554q48 0 81.5 -33.5t33.5 -81.5q0 -47 -33.5 -80.5t-81.5 -33.5q-47 0 -80.5 33.5t-33.5 80.5q0 48 33.5 81.5t80.5 33.5zM174 214q-47 0 -80.5 -33.5t-33.5 -81.5q0 -39 24 -67.5t62 -37.5q-7 -37 -26 -72t-34 -52l-16 -16l51 -42q168 139 168 287q0 48 -33.5 81.5
t-81.5 33.5z" />
    <glyph glyph-name="less" unicode="&#x3c;" horiz-adv-x="662" 
d="M60 357v118l547 222v-142l-358 -140l358 -138v-142z" />
    <glyph glyph-name="equal" unicode="=" horiz-adv-x="633" 
d="M60 458v153h513v-153h-513zM60 218v153h513v-153h-513z" />
    <glyph glyph-name="greater" unicode="&#x3e;" horiz-adv-x="662" 
d="M55 135v142l358 138l-358 140v142l547 -222v-118z" />
    <glyph glyph-name="question" unicode="?" horiz-adv-x="596" 
d="M23 651q0 4 6 21.5t24 47t45.5 55.5t77.5 45.5t113 19.5q116 0 200 -68t84 -171q0 -127 -169 -199q-23 -10 -29 -27.5t-6 -48.5v-56h-165v109q0 27 2 42.5t13 34t32 32.5q16 10 43 23.5t40 21.5t24 25.5t11 42.5q0 36 -23.5 59t-57.5 23q-49 0 -78.5 -31.5t-39.5 -71.5z
M286 214q48 0 81.5 -33.5t33.5 -81.5q0 -47 -33.5 -80.5t-81.5 -33.5q-47 0 -80.5 33.5t-33.5 80.5q0 48 33.5 81.5t80.5 33.5z" />
    <glyph glyph-name="at" unicode="@" horiz-adv-x="921" 
d="M718 344q33 0 47.5 22t14.5 76q0 117 -87.5 192t-219.5 75q-127 0 -215.5 -86.5t-88.5 -209.5q0 -121 89 -203.5t215 -82.5q59 0 105.5 17t63.5 34l18 17l116 -77q-4 -5 -11 -14t-33.5 -32t-58.5 -40.5t-86 -32t-114 -14.5q-122 0 -224.5 53.5t-164 152t-61.5 222.5
t61.5 222.5t164 151.5t224.5 53q179 0 302.5 -112t123.5 -286q0 -109 -60 -164t-143 -55q-85 0 -139 46l-9 -13q-49 -54 -126 -54q-82 0 -135.5 58t-53.5 143q0 86 53.5 144.5t135.5 58.5q76 0 126 -48v37h119v-209q0 -5 2 -12t15 -18.5t34 -11.5zM388 405q0 -35 22.5 -57.5
t58.5 -22.5q34 0 56.5 23t22.5 57q0 35 -23 58.5t-56 23.5q-34 0 -57.5 -23.5t-23.5 -58.5z" />
    <glyph glyph-name="A" unicode="A" horiz-adv-x="784" 
d="M305 825h174l333 -825h-202l-61 165h-314l-61 -165h-202zM299 330h186l-92 240h-2z" />
    <glyph glyph-name="B" unicode="B" horiz-adv-x="666" 
d="M60 825h284q118 0 191 -50t73 -160q0 -70 -37.5 -117t-93.5 -60q81 -14 123.5 -63t42.5 -145q0 -104 -70 -167t-196 -63h-317v825zM248 502h53q62 0 91.5 21.5t29.5 72.5q0 44 -29.5 64t-91.5 20h-53v-178zM248 145h59q138 0 138 92q0 55 -34.5 79t-103.5 24h-59v-195z
" />
    <glyph glyph-name="C" unicode="C" horiz-adv-x="697" 
d="M658 603q-61 56 -183 56q-110 0 -175.5 -73.5t-65.5 -172.5q0 -100 63 -173t178 -73q123 0 183 53v-205q-67 -30 -183 -30q-193 0 -322.5 123.5t-129.5 304.5q0 178 134.5 302.5t317.5 124.5q63 0 102 -6.5t81 -25.5v-205z" />
    <glyph glyph-name="D" unicode="D" horiz-adv-x="722" 
d="M60 825h249q170 0 280.5 -116t110.5 -296q0 -181 -110.5 -297t-280.5 -116h-249v825zM248 657v-489h39q101 0 157.5 68.5t57.5 175.5q0 107 -56.5 176t-158.5 69h-39z" />
    <glyph glyph-name="E" unicode="E" horiz-adv-x="600" 
d="M60 825h492v-165h-304v-164h292v-165h-292v-166h304v-165h-492v825z" />
    <glyph glyph-name="F" unicode="F" horiz-adv-x="567" 
d="M60 825h477v-165h-289v-164h267v-165h-267v-331h-188v825z" />
    <glyph glyph-name="G" unicode="G" horiz-adv-x="829" 
d="M425 462h385v-138l-4 -20q-3 -20 -7.5 -36.5t-14 -46t-23.5 -53.5t-34 -52.5t-49 -50.5t-64.5 -41t-84 -29t-104.5 -10q-167 0 -284.5 125t-117.5 302q0 180 115 304t287 124q201 0 318 -141l-123 -135q-64 103 -184 103q-87 0 -148.5 -74t-61.5 -181q0 -105 61.5 -178
t148.5 -73q80 0 129.5 41t49.5 115h-190v145z" />
    <glyph glyph-name="H" unicode="H" horiz-adv-x="762" 
d="M514 331h-266v-331h-188v825h188v-329h266v329h188v-825h-188v331z" />
    <glyph glyph-name="I" unicode="I" horiz-adv-x="308" 
d="M60 825h188v-825h-188v825z" />
    <glyph glyph-name="J" unicode="J" horiz-adv-x="469" 
d="M419 233q0 -121 -66.5 -184.5t-190.5 -63.5q-33 0 -65 8t-54 19.5t-39.5 23.5t-25.5 20l-9 8l60 157q59 -56 107 -56q43 0 69 28.5t26 87.5v544h188v-592z" />
    <glyph glyph-name="K" unicode="K" horiz-adv-x="761" 
d="M417 434l344 -434h-239l-274 360v-360h-188v825h188v-337l253 337h228z" />
    <glyph glyph-name="L" unicode="L" horiz-adv-x="565" 
d="M60 825h188v-660h284v-165h-472v825z" />
    <glyph glyph-name="M" unicode="M" horiz-adv-x="908" 
d="M868 825v-825h-188v461l-8 -38l-157 -423h-132l-157 423l-8 38v-461h-188v825h198l215 -524l6 -22l6 22l215 524h198z" />
    <glyph glyph-name="N" unicode="N" horiz-adv-x="826" 
d="M250 512h-2v-512h-188v825h188l328 -512h2v512h188v-825h-188z" />
    <glyph glyph-name="O" unicode="O" horiz-adv-x="877" 
d="M23 413q0 179 122 303t294 124q173 0 294 -123.5t121 -303.5q0 -181 -119 -304.5t-296 -123.5q-181 0 -298.5 122.5t-117.5 305.5zM226 413q0 -65 20 -118.5t70 -90.5t123 -37q105 0 158.5 72t53.5 174q0 101 -54.5 173.5t-157.5 72.5q-102 0 -157.5 -72.5t-55.5 -173.5z
" />
    <glyph glyph-name="P" unicode="P" horiz-adv-x="666" 
d="M60 825h301q126 0 204 -65t78 -189t-79 -194.5t-203 -70.5h-113v-306h-188v825zM248 456h53q63 0 103.5 25.5t40.5 83.5q0 59 -40.5 84.5t-103.5 25.5h-53v-219z" />
    <glyph glyph-name="Q" unicode="Q" horiz-adv-x="867" 
d="M860 -104h-205l-67 115q-70 -26 -149 -26q-181 0 -298.5 122.5t-117.5 305.5q0 179 122 303t294 124q173 0 294 -123.5t121 -303.5q0 -181 -118 -304zM439 167q30 0 54 6l-67 115h201q24 57 24 125q0 101 -54.5 173.5t-157.5 72.5q-102 0 -157.5 -72.5t-55.5 -173.5
q0 -65 20 -118.5t70 -90.5t123 -37z" />
    <glyph glyph-name="R" unicode="R" horiz-adv-x="716" 
d="M60 825h305q118 0 188.5 -63.5t70.5 -181.5q0 -91 -45.5 -152.5t-123.5 -86.5l254 -341h-239l-222 326v-326h-188v825zM248 459h22q26 0 44 1t41 7t37 17t24 32t10 51t-10 51t-24 32t-37 17t-41 7t-44 1h-22v-216z" />
    <glyph glyph-name="S" unicode="S" horiz-adv-x="672" 
d="M364 840q67 0 131 -19.5t95 -38.5l30 -20l-76 -150q-9 6 -25 15.5t-60 25.5t-82 16q-47 0 -72.5 -20t-25.5 -54q0 -17 12 -31.5t41 -31t51 -26.5t68 -30q80 -34 136.5 -92.5t56.5 -132.5q0 -71 -25.5 -124t-70 -83t-98.5 -44.5t-117 -14.5q-54 0 -106 11t-87 27.5
t-63 32.5t-41 27l-13 11l94 158q12 -10 33 -25.5t74.5 -41.5t94.5 -26q119 0 119 81q0 17 -8.5 31.5t-30 29t-38 23t-54 26t-55.5 26.5q-75 37 -116 92.5t-41 119.5q0 111 82 181.5t187 70.5z" />
    <glyph glyph-name="T" unicode="T" horiz-adv-x="596" 
d="M204 660h-196v165h580v-165h-196v-660h-188v660z" />
    <glyph glyph-name="U" unicode="U" horiz-adv-x="744" 
d="M506 825h188v-492q0 -157 -84 -252.5t-238 -95.5t-238 95.5t-84 252.5v492h188v-437q0 -117 32 -167.5t102 -50.5t102 50.5t32 167.5v437z" />
    <glyph glyph-name="V" unicode="V" horiz-adv-x="784" 
d="M469 0h-154l-323 825h212l188 -522l188 522h212z" />
    <glyph glyph-name="W" unicode="W" horiz-adv-x="1136" 
d="M901 0h-208l-132 463l-132 -463h-209l-235 825h209l141 -566h5l150 566h142l150 -566h5l141 566h208z" />
    <glyph glyph-name="X" unicode="X" horiz-adv-x="798" 
d="M510 444l312 -444h-243l-185 281l-185 -281h-233l302 444l-260 381h224l152 -225l152 225h234z" />
    <glyph glyph-name="Y" unicode="Y" horiz-adv-x="736" 
d="M274 370l-284 455h226l152 -264l152 264h226l-284 -455v-370h-188v370z" />
    <glyph glyph-name="Z" unicode="Z" horiz-adv-x="769" 
d="M74 825h679l-409 -660h382v-165h-710l408 660h-350v165z" />
    <glyph glyph-name="bracketleft" unicode="[" horiz-adv-x="442" 
d="M60 -260v1120h322v-117h-169v-886h169v-117h-322z" />
    <glyph glyph-name="backslash" unicode="\" horiz-adv-x="611" 
d="M588 0h-153l-412 860h153z" />
    <glyph glyph-name="bracketright" unicode="]" horiz-adv-x="442" 
d="M60 -260v117h169v886h-169v117h322v-1120h-322z" />
    <glyph glyph-name="asciicircum" unicode="^" horiz-adv-x="496" 
d="M501 605h-161l-92 109l-92 -109h-161l207 235h92z" />
    <glyph glyph-name="underscore" unicode="_" horiz-adv-x="513" 
d="M0 -100v85h513v-85h-513z" />
    <glyph glyph-name="grave" unicode="`" horiz-adv-x="388" 
d="M47 725l91 115l203 -176l-56 -77z" />
    <glyph glyph-name="a" unicode="a" 
d="M23 256q0 114 72 193t183 79q66 0 109 -26.5t59 -57.5v69h177v-513h-175v78h-2q-12 -29 -57 -61t-111 -32q-111 0 -183 78.5t-72 192.5zM211 256q0 -53 33 -86.5t87 -33.5q51 0 83 33.5t32 86.5t-32.5 87t-82.5 34q-51 0 -85.5 -34t-34.5 -87z" />
    <glyph glyph-name="b" unicode="b" 
d="M404 528q111 0 183 -79t72 -193t-72 -192.5t-183 -78.5q-66 0 -111 32t-57 61h-1v-78h-175v860h177l-1 -416q16 31 59 57.5t109 26.5zM354 136q54 0 87 33.5t33 86.5t-34.5 87t-85.5 34q-50 0 -82.5 -34t-32.5 -87t32 -86.5t83 -33.5z" />
    <glyph glyph-name="c" unicode="c" horiz-adv-x="487" 
d="M320 136q40 0 68 21l81 -134q-68 -38 -150 -38q-129 0 -209 75.5t-80 194.5v2v1q0 119 80 194.5t209 75.5q82 0 150 -38l-81 -134q-29 21 -68 21q-51 0 -85.5 -34t-34.5 -86q0 -53 34.5 -87t85.5 -34z" />
    <glyph glyph-name="d" unicode="d" 
d="M279 528q66 0 109 -26.5t59 -57.5l-1 416h177v-860h-175v78h-1q-12 -29 -57 -61t-111 -32q-111 0 -183 78.5t-72 192.5t72 193t183 79zM329 136q51 0 83 33.5t32 86.5t-32.5 87t-82.5 34q-51 0 -85.5 -34t-34.5 -87t33 -86.5t87 -33.5z" />
    <glyph glyph-name="e" unicode="e" horiz-adv-x="593" 
d="M197 232q0 -54 35 -80t76 -26q43 0 68 11.5t57 45.5l128 -74q-48 -64 -104.5 -94t-157.5 -30q-116 0 -196 79.5t-80 191.5q0 113 82 192.5t198 79.5q121 0 194 -70.5t73 -201.5q0 -18 -1 -24h-372zM405 330q-2 32 -30 57.5t-68 25.5q-45 0 -75.5 -24.5t-31.5 -58.5h205z
" />
    <glyph glyph-name="f" unicode="f" horiz-adv-x="375" 
d="M6 513h84v129q0 108 64 170.5t157 62.5q37 0 64.5 -8t36.5 -16l10 -8l-53 -139q-13 14 -42 14q-24 0 -42 -21.5t-18 -69.5v-114h108v-135h-108v-378h-177v378h-84v135z" />
    <glyph glyph-name="g" unicode="g" 
d="M446 513h177v-527q0 -125 -83 -193t-219 -68q-220 0 -284 149l145 71q43 -70 139 -70q57 0 92 30t35 95v78h-2q-12 -29 -57 -61t-111 -32q-111 0 -183 78.5t-72 192.5t72 193t183 79q66 0 109 -26.5t59 -57.5v69zM331 136q51 0 83 33.5t32 86.5t-32.5 87t-82.5 34
q-51 0 -85.5 -34t-34.5 -87t33 -86.5t87 -33.5z" />
    <glyph glyph-name="h" unicode="h" horiz-adv-x="661" 
d="M406 528q38 0 72 -9.5t65 -30t49.5 -59t18.5 -91.5v-338h-177v293q0 97 -92 97q-41 0 -73 -34t-32 -86v-270h-177v860h177v-425q13 36 61 64.5t108 28.5z" />
    <glyph glyph-name="i" unicode="i" horiz-adv-x="302" 
d="M151 830q43 0 74 -31t31 -74t-31 -74t-74 -31t-74 31t-31 74t31 74t74 31zM237 513h-177v-513h177v513z" />
    <glyph glyph-name="j" unicode="j" horiz-adv-x="297" 
d="M151 830q43 0 74 -31t31 -74t-31 -74t-74 -31t-74 31t-31 74t31 74t74 31zM237 513h-177v-558q0 -70 -49 -70q-10 0 -21 3.5t-18 7.5l-6 4l-55 -143q2 -1 13 -6l16.5 -7.5t18.5 -6.5t25 -6t30 -4t38 -2q50 0 88 17.5t58 47t29.5 62t9.5 69.5v592z" />
    <glyph glyph-name="k" unicode="k" horiz-adv-x="646" 
d="M416 513h230l-244 -245l268 -268h-228l-205 205v-205h-177v860h177v-526z" />
    <glyph glyph-name="l" unicode="l" horiz-adv-x="297" 
d="M237 0h-177v860h177v-860z" />
    <glyph glyph-name="m" unicode="m" horiz-adv-x="975" 
d="M725 528q38 0 70.5 -9.5t61.5 -30t46 -59t17 -91.5v-338h-177v293q0 51 -20 74t-62 23q-40 0 -62.5 -28.5t-22.5 -81.5v-280h-162v293q0 51 -20 74t-62 23q-40 0 -67.5 -33.5t-27.5 -86.5v-270h-177v513h177v-78q13 37 56 65t103 28q125 0 166 -90q15 35 60 62.5
t103 27.5z" />
    <glyph glyph-name="n" unicode="n" horiz-adv-x="661" 
d="M237 0h-177v513h177v-78q13 36 61 64.5t108 28.5q38 0 72 -9.5t65 -30t49.5 -59t18.5 -91.5v-338h-177v293q0 97 -92 97q-41 0 -73 -34t-32 -86v-270z" />
    <glyph glyph-name="o" unicode="o" horiz-adv-x="616" 
d="M20 255q0 -119 80 -194.5t209 -75.5q125 0 206 76t81 194t-83 195.5t-204 77.5q-123 0 -206 -77t-83 -196zM190 256q0 53 34.5 87t85.5 34q50 0 84.5 -34t34.5 -87q0 -52 -33.5 -86t-85.5 -34q-54 0 -87 33.5t-33 86.5z" />
    <glyph glyph-name="p" unicode="p" 
d="M404 -15q-66 0 -109 26.5t-59 57.5l1 -329h-177v773h175v-78h1q12 29 57 61t111 32q111 0 183 -78.5t72 -192.5t-72 -193t-183 -79zM354 377q-51 0 -83 -33.5t-32 -86.5t32.5 -87t82.5 -34q51 0 85.5 34t34.5 87t-33 86.5t-87 33.5z" />
    <glyph glyph-name="q" unicode="q" 
d="M279 -15q-111 0 -183 79t-72 193t72 192.5t183 78.5q66 0 111 -32t57 -61h1v78h175v-773h-177l1 329q-16 -31 -59 -57.5t-109 -26.5zM329 377q-54 0 -87 -33.5t-33 -86.5t34.5 -87t85.5 -34q50 0 82.5 34t32.5 87t-32 86.5t-83 33.5z" />
    <glyph glyph-name="r" unicode="r" horiz-adv-x="498" 
d="M237 0h-177v513h177v-74h2q2 4 6.5 10t19.5 21t32 27t44 21.5t55 9.5q29 0 57 -8t41 -16l14 -8l-74 -150q-33 28 -92 28q-32 0 -55 -14t-32.5 -34t-13.5 -34t-4 -22v-270z" />
    <glyph glyph-name="s" unicode="s" horiz-adv-x="492" 
d="M283 528q44 0 87 -10t64 -20l21 -10l-58 -116q-60 32 -114 32q-30 0 -42.5 -6.5t-12.5 -24.5q0 -4 1 -8t4 -7.5t5.5 -6t8.5 -5.5t9.5 -4.5t11.5 -4.5l12 -4.5t13.5 -4.5t14.5 -4q31 -9 54 -20t48.5 -30t39.5 -48t14 -66q0 -175 -243 -175q-55 0 -104.5 17t-71.5 34
l-22 18l72 121q8 -7 21 -16.5t47 -26t59 -16.5q55 0 55 37q0 17 -14 26.5t-47.5 21.5t-52.5 22q-48 25 -76 56.5t-28 83.5q0 78 60.5 121.5t163.5 43.5z" />
    <glyph glyph-name="t" unicode="t" horiz-adv-x="395" 
d="M16 513h74v191h177v-191h108v-135h-108v-163q0 -71 40 -71q10 0 21 4t17 8l6 4l44 -143q-57 -32 -130 -32q-50 0 -86 17.5t-54.5 47t-26.5 62t-8 69.5v197h-74v135z" />
    <glyph glyph-name="u" unicode="u" horiz-adv-x="656" 
d="M227 279q0 -78 23.5 -114t77.5 -36t77.5 36t23.5 114v234h177v-247q0 -133 -69 -207t-209 -74t-209 74t-69 207v247h177v-234z" />
    <glyph glyph-name="v" unicode="v" horiz-adv-x="630" 
d="M-20 513h210l125 -279l125 279h210l-275 -513h-120z" />
    <glyph glyph-name="w" unicode="w" horiz-adv-x="946" 
d="M473 265l-138 -265h-120l-215 513h204l79 -249l129 249h122l128 -249l80 249h204l-215 -513h-120z" />
    <glyph glyph-name="x" unicode="x" horiz-adv-x="654" 
d="M435 268l219 -268h-214l-113 145l-113 -145h-214l219 268l-188 245h207l89 -119l89 119h207z" />
    <glyph glyph-name="y" unicode="y" horiz-adv-x="603" 
d="M309 266l120 247h184l-373 -773h-184l167 340l-233 433h194z" />
    <glyph glyph-name="z" unicode="z" horiz-adv-x="561" 
d="M47 513h509l-254 -378h234v-135h-531l254 378h-212v135z" />
    <glyph glyph-name="braceleft" unicode="{" horiz-adv-x="446" 
d="M60 347q70 0 70 65v267q0 34 7 63.5t24 57.5t49.5 44t78.5 16h97v-128h-40q-27 0 -45 -19t-18 -49v-257q0 -75 -61 -107q61 -32 61 -107v-257q0 -30 18 -49t45 -19h40v-128h-97q-46 0 -78.5 16t-49.5 44t-24 57.5t-7 63.5v267q0 65 -70 65v94z" />
    <glyph glyph-name="bar" unicode="|" horiz-adv-x="273" 
d="M213 0h-153v860h153v-860z" />
    <glyph glyph-name="braceright" unicode="}" horiz-adv-x="446" 
d="M386 253q-70 0 -70 -65v-267q0 -34 -7 -63.5t-24 -57.5t-49.5 -44t-78.5 -16h-97v128h40q27 0 45 19t18 49v257q0 75 61 107q-61 32 -61 107v257q0 30 -18 49t-45 19h-40v128h97q46 0 78.5 -16t49.5 -44t24 -57.5t7 -63.5v-267q0 -65 70 -65v-94z" />
    <glyph glyph-name="asciitilde" unicode="~" horiz-adv-x="694" 
d="M634 440q-3 -6 -8 -15t-22 -32.5t-36 -41.5t-49.5 -33t-61.5 -15q-67 0 -147 53q-48 32 -73 32q-26 0 -47 -19.5t-29 -38.5l-8 -20l-93 81q3 6 8 15t22 32.5t36 41.5t49.5 33t61.5 15t61 -9.5t44 -17.5t44 -27q46 -31 71 -31q26 0 47 19.5t29 39.5l8 19z" />
    <glyph glyph-name="exclamdown" unicode="&#xa1;" horiz-adv-x="349" 
d="M174 386q-47 0 -80.5 33.5t-33.5 81.5q0 47 33.5 80.5t80.5 33.5q48 0 81.5 -33.5t33.5 -80.5q0 -48 -33.5 -81.5t-81.5 -33.5zM263 -260h-177l24 590h129z" />
    <glyph glyph-name="cent" unicode="&#xa2;" horiz-adv-x="491" 
d="M248 -8q-95 20 -160 94t-65 169q0 88 55.5 159t139.5 99v123h108v-109q45 -2 83 -14t54 -23l16 -10l-60 -121q-33 24 -86 24q-50 0 -86 -37t-36 -89q0 -53 36 -90t86 -37q24 0 45.5 6t31.5 12l9 6l60 -123q-43 -32 -123 -43v-117h-108v121z" />
    <glyph glyph-name="sterling" unicode="&#xa3;" horiz-adv-x="749" 
d="M55 387h102q-52 82 -52 171q0 123 73.5 203t207.5 80q66 0 118 -19.5t80 -47.5t46.5 -56t23.5 -48l6 -19l-158 -77l-2.5 12.5t-10.5 27.5t-20.5 35t-33.5 27.5t-49 12.5q-45 0 -70 -36t-25 -95q0 -24 2.5 -43.5t9 -39t10 -29t14 -32t12.5 -27.5h173v-98h-137q3 -21 3 -46
q0 -21 -7 -41t-14 -30l-7 -10q1 0 57 -16.5t100 -16.5q25 0 42 18t21 36l4 18l137 -68q-1 -6 -3.5 -16t-15 -35.5t-30.5 -45t-53.5 -35.5t-80.5 -16q-66 0 -167 29t-144 29q-18 0 -30 -10.5t-15 -21.5l-2 -11h-115q0 30 17 70t52 74t77 34q16 23 16 58q0 24 -12 53h-150v98z
" />
    <glyph glyph-name="yen" unicode="&#xa5;" horiz-adv-x="764" 
d="M288 110h-213v133h213v60h-213v133h169l-260 389h226l172 -264l172 264h226l-260 -389h168v-133h-212v-60h212v-133h-212v-110h-188v110z" />
    <glyph glyph-name="brokenbar" unicode="&#xa6;" horiz-adv-x="273" 
d="M213 528h-153v332h153v-332zM213 0h-153v332h153v-332z" />
    <glyph glyph-name="section" unicode="&#xa7;" horiz-adv-x="640" 
d="M288 -275q-65 0 -116.5 19.5t-78 48t-44 56.5t-21.5 47l-5 20l160 34q1 -3 3 -8.5t10.5 -18.5t19 -23t30 -18.5t42.5 -8.5q82 0 82 55q0 15 -9.5 28t-34.5 28t-44.5 25t-61.5 29q-98 46 -147.5 101.5t-49.5 136.5q3 57 38 105t96 75q-46 33 -67.5 74t-21.5 101
q0 88 65.5 148.5t192.5 60.5q43 0 80 -10t61 -25.5t43 -35t29.5 -38.5t17 -34.5t8.5 -25.5l2 -10l-160 -34q0 3 -1 7t-6 15.5t-12.5 20t-24 15.5t-37.5 7q-30 0 -46.5 -15.5t-16.5 -39.5q0 -27 35.5 -50t116.5 -60q98 -46 147.5 -101.5t49.5 -136.5q-3 -57 -38 -105t-96 -75
q46 -34 67.5 -75t21.5 -100q0 -36 -13.5 -69.5t-43 -66.5t-87 -53t-135.5 -20zM275 389q-84 -24 -88 -84q1 -23 24 -45t45.5 -34t62.5 -31q2 -1 8 -3.5t9 -4.5l23 -11q85 22 89 84q-1 23 -24 45t-45.5 34t-62.5 31q-2 1 -8 3.5t-9 4.5z" />
    <glyph glyph-name="dieresis" unicode="&#xa8;" horiz-adv-x="561" 
d="M162 791q38 0 65 -27t27 -65t-27 -65t-65 -27t-65 27t-27 65t27 65t65 27zM399 791q38 0 65 -27t27 -65t-27 -65t-65 -27t-65 27t-27 65t27 65t65 27z" />
    <glyph glyph-name="copyright" unicode="&#xa9;" horiz-adv-x="901" 
d="M23 412q0 177 125.5 302.5t301.5 125.5q177 0 302.5 -125.5t125.5 -302.5q0 -176 -125.5 -301.5t-302.5 -125.5q-176 0 -301.5 125.5t-125.5 301.5zM137 412q0 -129 92 -221t221 -92q130 0 222 92t92 221q0 130 -92 222t-222 92q-129 0 -221 -92t-92 -222zM490 516
q15 0 31.5 -4t26.5 -8l9 -4l43 89q-4 4 -16 11t-44.5 15.5t-70.5 8.5q-86 0 -152 -62.5t-66 -148.5q0 -85 66 -146t152 -61q34 0 67 8t48 16l16 9q-7 16 -22 45t-22 45q-27 -16 -66 -16q-41 0 -69.5 29.5t-28.5 72.5q0 42 28.5 71.5t69.5 29.5z" />
    <glyph glyph-name="ordfeminine" unicode="&#xaa;" horiz-adv-x="512" 
d="M70 671q0 71 44.5 120t113.5 49q62 0 105 -40v30h109v-317h-108v36h-1q-42 -45 -105 -45q-69 0 -113.5 48.5t-44.5 118.5zM187 671q0 -32 20.5 -53t53.5 -21q32 0 53 21t21 53q0 33 -21.5 54t-52.5 21t-52.5 -21t-21.5 -54z" />
    <glyph glyph-name="guillemotleft" unicode="&#xab;" horiz-adv-x="625" 
d="M321 101l-93 -73l-195 250l195 250l93 -73l-138 -177zM571 101l-93 -73l-195 250l195 250l93 -73l-138 -177z" />
    <glyph glyph-name="registered" unicode="&#xae;" horiz-adv-x="494" 
d="M23 615q0 93 65.5 159t157.5 66q94 0 159.5 -66t65.5 -159q0 -92 -65.5 -157.5t-159.5 -65.5q-92 0 -157.5 65.5t-65.5 157.5zM83 615q0 -67 48 -115t115 -48q69 0 117 47.5t48 115.5t-48 116.5t-117 48.5q-67 0 -115 -48.5t-48 -116.5zM178 720h73q30 0 49 -16t19 -45
q0 -45 -42 -60l73 -86h-62l-63 82v-82h-47v207zM225 628h6q37 0 37 27q0 28 -37 28h-6v-55z" />
    <glyph glyph-name="macron" unicode="&#xaf;" horiz-adv-x="548" 
d="M70 634v120h408v-120h-408z" />
    <glyph glyph-name="degree" unicode="&#xb0;" horiz-adv-x="372" 
d="M70 772q0 45 33.5 74t82.5 29t82.5 -29t33.5 -74t-32.5 -74t-83.5 -29t-83.5 29t-32.5 74zM143 772q0 -19 12 -32.5t31 -13.5t31.5 13.5t12.5 32.5t-12.5 32t-31.5 13q-18 0 -30.5 -13t-12.5 -32z" />
    <glyph glyph-name="plusminus" unicode="&#xb1;" horiz-adv-x="633" 
d="M393 363v-155h-153v155h-180v153h180v155h153v-155h180v-153h-180zM60 0v153h513v-153h-513z" />
    <glyph glyph-name="uni00B2" unicode="&#xb2;" horiz-adv-x="267" 
d="M152 778q-16 0 -30 -15t-20 -31l-7 -15l-61 30q1 4 3.5 10t13 22t22.5 28.5t33.5 22.5t45.5 10q39 0 66 -11.5t38.5 -30.5t16 -35.5t4.5 -35.5q0 -33 -28.5 -70.5t-56.5 -58.5l-28 -21h119v-64h-251v18q7 6 18 15.5t39.5 36t50.5 50.5t40 50.5t18 43.5q0 51 -46 51z" />
    <glyph glyph-name="uni00B3" unicode="&#xb3;" horiz-adv-x="253" 
d="M25 771l2.5 7.5t9 16.5t18 21t30 16.5t44.5 7.5q45 0 74 -26t29 -66q0 -37 -28 -59q40 -24 40 -72q0 -46 -33 -75t-83 -29q-27 0 -49.5 8t-34.5 19.5t-20.5 23t-11.5 19.5l-3 8l67 32q0 -5 2 -13t15 -21.5t34 -13.5t33.5 11t12.5 31t-13 33t-33 13l-13 -2v47h15
q15 0 26.5 11.5t11.5 28.5q0 15 -12 25t-27 10q-18 0 -29.5 -9.5t-14.5 -19.5l-3 -10z" />
    <glyph glyph-name="acute" unicode="&#xb4;" horiz-adv-x="566" 
d="M192 587l-56 77l203 176l91 -115z" />
    <glyph glyph-name="paragraph" unicode="&#xb6;" horiz-adv-x="708" 
d="M648 0h-103v721h-61v-721h-103v306h-96q-117 0 -189.5 78t-72.5 187q0 108 72 181t190 73h363v-825z" />
    <glyph glyph-name="periodcentered" unicode="&#xb7;" horiz-adv-x="349" 
d="M174 384q48 0 81.5 -33.5t33.5 -81.5q0 -47 -33.5 -80.5t-81.5 -33.5q-47 0 -80.5 33.5t-33.5 80.5q0 48 33.5 81.5t80.5 33.5z" />
    <glyph glyph-name="cedilla" unicode="&#xb8;" horiz-adv-x="446" 
d="M199 26l70 -22l-22 -67q47 0 88 -27t41 -75q0 -53 -37.5 -91t-114.5 -38q-40 0 -78.5 21t-57.5 41l-18 21l72 54q4 -5 11.5 -13t29 -21t41.5 -13q26 0 38 11.5t12 27.5q0 22 -19 33.5t-43 11.5q-16 0 -29 -2t-17 -4l-5 -3l-10 8z" />
    <glyph glyph-name="uni00B9" unicode="&#xb9;" horiz-adv-x="140" 
d="M60 730l-51 -33v71l88 57h34v-312h-71v217z" />
    <glyph glyph-name="ordmasculine" unicode="&#xba;" horiz-adv-x="521" 
d="M70 671q0 73 55.5 121t136.5 48q80 0 134.5 -48t54.5 -121t-53.5 -120t-135.5 -47q-86 0 -139 47t-53 120zM187 671q0 -33 20.5 -53.5t53.5 -20.5q32 0 53 21t21 53q0 33 -21.5 54t-52.5 21t-52.5 -21t-21.5 -54z" />
    <glyph glyph-name="guillemotright" unicode="&#xbb;" horiz-adv-x="625" 
d="M54 455l93 73l195 -250l-195 -250l-93 73l138 177zM397 28l-93 73l138 177l-138 177l93 73l195 -250z" />
    <glyph glyph-name="onequarter" unicode="&#xbc;" horiz-adv-x="876" 
d="M139 680l-79 -52v109l136 88h52v-480h-109v335zM581 825h118l-480 -825h-118zM787 480v-283h55v-96h-55v-101h-103v101h-236v33l231 346h108zM684 197v137h-1l-85 -137h86z" />
    <glyph glyph-name="onehalf" unicode="&#xbd;" horiz-adv-x="945" 
d="M139 680l-79 -52v109l136 88h52v-480h-109v335zM581 825h118l-480 -825h-118zM710 391q-23 0 -44 -22.5t-30 -44.5l-10 -23l-90 43q2 6 6 15t18.5 33t32.5 42t49.5 33t67.5 15q57 0 96.5 -17t57 -45t24 -52.5t6.5 -51.5q0 -31 -17 -65t-41.5 -61t-49.5 -49t-42 -34
l-17 -12h176v-95h-369v27q10 8 26.5 22t58.5 53.5t74 74.5t58.5 74.5t26.5 64.5q0 14 -3 28t-19.5 30.5t-45.5 16.5z" />
    <glyph glyph-name="threequarters" unicode="&#xbe;" horiz-adv-x="977" 
d="M58 726q1 4 3.5 11t13.5 24.5t26.5 31t45.5 24.5t67 11q67 0 110 -38t43 -98q0 -56 -41 -88q60 -37 60 -107q0 -67 -49.5 -111t-124.5 -44q-41 0 -74 12t-51 29t-30.5 34t-16.5 29l-4 12l99 48q0 -3 1 -7.5t6 -17t12 -22t22 -17t35 -7.5q30 0 49 16.5t19 45.5
q0 30 -19.5 49t-48.5 19l-20 -3v70h23q22 0 39 17t17 42q0 22 -17.5 37t-40.5 15q-26 0 -43.5 -14.5t-22.5 -28.5l-4 -15zM682 825h118l-480 -825h-118zM888 480v-283h55v-96h-55v-101h-103v101h-236v33l231 346h108zM785 197v137h-1l-85 -137h86z" />
    <glyph glyph-name="questiondown" unicode="&#xbf;" horiz-adv-x="596" 
d="M310 351q-48 0 -81.5 33.5t-33.5 81.5q0 47 33.5 80.5t81.5 33.5q47 0 80.5 -33.5t33.5 -80.5q0 -48 -33.5 -81.5t-80.5 -33.5zM426 -15q-10 -40 -39.5 -71.5t-78.5 -31.5q-34 0 -57.5 23t-23.5 59q0 25 11 42.5t24 25.5t40 21.5t43 23.5q31 20 39 44t8 65v109h-165v-56
q0 -21 -1.5 -32t-9.5 -24t-24 -20q-169 -72 -169 -199q0 -103 84 -171t200 -68q63 0 113 19.5t77.5 45.5t45.5 55.5t24 47t6 21.5z" />
    <glyph glyph-name="Agrave" unicode="&#xc0;" horiz-adv-x="784" 
d="M156 1037l91 115l203 -176l-56 -77zM305 825h174l333 -825h-202l-61 165h-314l-61 -165h-202zM299 330h186l-92 240h-2z" />
    <glyph glyph-name="Aacute" unicode="&#xc1;" horiz-adv-x="784" 
d="M389 899l-56 77l203 176l91 -115zM305 825h174l333 -825h-202l-61 165h-314l-61 -165h-202zM299 330h186l-92 240h-2z" />
    <glyph glyph-name="Acircumflex" unicode="&#xc2;" horiz-adv-x="784" 
d="M239 899l-68 91l221 162l221 -162l-68 -91l-153 112zM305 825h174l333 -825h-202l-61 165h-314l-61 -165h-202zM299 330h186l-92 240h-2z" />
    <glyph glyph-name="Atilde" unicode="&#xc3;" horiz-adv-x="784" 
d="M383 954q-40 19 -76 19q-14 0 -25.5 -11.5t-15.5 -23.5l-4 -11h-101q1 7 3.5 18.5t13 41t24 52.5t39 41.5t56.5 18.5q17 0 43 -6.5t44 -13.5l17 -7q40 -19 76 -19q14 0 25.5 11.5t15.5 23.5l4 11h101q-1 -7 -3.5 -18.5t-13 -41t-24 -52.5t-39 -41.5t-56.5 -18.5
q-17 0 -43 6.5t-44 13.5zM305 825h174l333 -825h-202l-61 165h-314l-61 -165h-202zM299 330h186l-92 240h-2z" />
    <glyph glyph-name="Adieresis" unicode="&#xc4;" horiz-adv-x="784" 
d="M273 1103q38 0 65 -27t27 -65t-27 -65t-65 -27t-65 27t-27 65t27 65t65 27zM510 1103q38 0 65 -27t27 -65t-27 -65t-65 -27t-65 27t-27 65t27 65t65 27zM305 825h174l333 -825h-202l-61 165h-314l-61 -165h-202zM299 330h186l-92 240h-2z" />
    <glyph glyph-name="Aring" unicode="&#xc5;" horiz-adv-x="784" 
d="M231 1045q0 62 46.5 102t114.5 40q69 0 115 -40t46 -102q0 -63 -45 -103t-116 -40q-72 0 -116.5 40t-44.5 103zM331 1045q0 -27 17 -45.5t44 -18.5q26 0 43.5 18.5t17.5 45.5q0 26 -18 44t-43 18t-43 -18.5t-18 -43.5zM305 825h174l333 -825h-202l-61 165h-314l-61 -165
h-202zM299 330h186l-92 240h-2z" />
    <glyph glyph-name="AE" unicode="&#xc6;" horiz-adv-x="980" 
d="M460 165h-193l-70 -165h-202l377 825h560v-165h-284v-164h272v-165h-272v-166h284v-165h-472v165zM333 330h127v302h-2z" />
    <glyph glyph-name="Ccedilla" unicode="&#xc7;" horiz-adv-x="753" 
d="M475 659q-110 0 -175.5 -73.5t-65.5 -172.5q0 -100 63 -173t178 -73q123 0 183 53v-205q-67 -30 -183 -30q-37 0 -65 4l-17 -52q47 0 88 -27t41 -75q0 -53 -37.5 -91t-114.5 -38q-40 0 -78.5 21t-57.5 41l-18 21l72 54q4 -5 11.5 -13t29 -21t41.5 -13q26 0 38 11.5
t12 27.5q0 22 -19 33.5t-43 11.5q-16 0 -29 -2t-17 -4l-5 -3l-10 8l40 125q-141 40 -227.5 151.5t-86.5 257.5q0 178 134.5 302.5t317.5 124.5q63 0 102 -6.5t81 -25.5v-205q-61 56 -183 56z" />
    <glyph glyph-name="Egrave" unicode="&#xc8;" horiz-adv-x="580" 
d="M54 1037l91 115l203 -176l-56 -77zM60 825h472v-165h-284v-164h272v-165h-272v-166h284v-165h-472v825z" />
    <glyph glyph-name="Eacute" unicode="&#xc9;" horiz-adv-x="580" 
d="M228 899l-56 77l203 176l91 -115zM60 825h472v-165h-284v-164h272v-165h-272v-166h284v-165h-472v825z" />
    <glyph glyph-name="Ecircumflex" unicode="&#xca;" horiz-adv-x="580" 
d="M137 899l-68 91l221 162l221 -162l-68 -91l-153 112zM60 825h472v-165h-284v-164h272v-165h-272v-166h284v-165h-472v825z" />
    <glyph glyph-name="Edieresis" unicode="&#xcb;" horiz-adv-x="580" 
d="M181 1103q38 0 65 -27t27 -65t-27 -65t-65 -27t-65 27t-27 65t27 65t65 27zM418 1103q38 0 65 -27t27 -65t-27 -65t-65 -27t-65 27t-27 65t27 65t65 27zM60 825h472v-165h-284v-164h272v-165h-272v-166h284v-165h-472v825z" />
    <glyph glyph-name="Igrave" unicode="&#xcc;" horiz-adv-x="308" 
d="M-82 1037l91 115l203 -176l-56 -77zM60 825h188v-825h-188v825z" />
    <glyph glyph-name="Iacute" unicode="&#xcd;" horiz-adv-x="308" 
d="M112 899l-56 77l203 176l91 -115zM60 825h188v-825h-188v825z" />
    <glyph glyph-name="Icircumflex" unicode="&#xce;" horiz-adv-x="308" 
d="M1 899l-68 91l221 162l221 -162l-68 -91l-153 112zM60 825h188v-825h-188v825z" />
    <glyph glyph-name="Idieresis" unicode="&#xcf;" horiz-adv-x="308" 
d="M36 1103q38 0 65 -27t27 -65t-27 -65t-65 -27t-65 27t-27 65t27 65t65 27zM273 1103q38 0 65 -27t27 -65t-27 -65t-65 -27t-65 27t-27 65t27 65t65 27zM60 825h188v-825h-188v825z" />
    <glyph glyph-name="Eth" unicode="&#xd0;" horiz-adv-x="776" 
d="M98 336h-82v153h82v336h239q173 0 294.5 -117.5t121.5 -295.5q-1 -178 -122.5 -295t-293.5 -117h-239v336zM550 413q-1 104 -66.5 174t-168.5 70h-29v-168h109v-153h-109v-168h29q104 0 169.5 70t65.5 175z" />
    <glyph glyph-name="Ntilde" unicode="&#xd1;" horiz-adv-x="826" 
d="M404 954q-40 19 -76 19q-14 0 -25.5 -11.5t-15.5 -23.5l-4 -11h-101q1 7 3.5 18.5t13 41t24 52.5t39 41.5t56.5 18.5q17 0 43 -6.5t43 -13.5l18 -7q40 -19 76 -19q14 0 25.5 11.5t15.5 23.5l4 11h101q-1 -7 -3.5 -18.5t-13 -41t-24 -52.5t-39 -41.5t-56.5 -18.5
q-17 0 -43 6.5t-43 13.5zM250 512h-2v-512h-188v825h188l328 -512h2v512h188v-825h-188z" />
    <glyph glyph-name="Ograve" unicode="&#xd2;" horiz-adv-x="877" 
d="M202 1037l91 115l203 -176l-56 -77zM23 413q0 179 122 303t294 124q173 0 294 -123.5t121 -303.5q0 -181 -119 -304.5t-296 -123.5q-181 0 -298.5 122.5t-117.5 305.5zM226 413q0 -65 20 -118.5t70 -90.5t123 -37q105 0 158.5 72t53.5 174q0 101 -54.5 173.5t-157.5 72.5
q-102 0 -157.5 -72.5t-55.5 -173.5z" />
    <glyph glyph-name="Oacute" unicode="&#xd3;" horiz-adv-x="877" 
d="M396 899l-56 77l203 176l91 -115zM23 413q0 179 122 303t294 124q173 0 294 -123.5t121 -303.5q0 -181 -119 -304.5t-296 -123.5q-181 0 -298.5 122.5t-117.5 305.5zM226 413q0 -65 20 -118.5t70 -90.5t123 -37q105 0 158.5 72t53.5 174q0 101 -54.5 173.5t-157.5 72.5
q-102 0 -157.5 -72.5t-55.5 -173.5z" />
    <glyph glyph-name="Ocircumflex" unicode="&#xd4;" horiz-adv-x="877" 
d="M285 899l-68 91l221 162l221 -162l-68 -91l-153 112zM23 413q0 179 122 303t294 124q173 0 294 -123.5t121 -303.5q0 -181 -119 -304.5t-296 -123.5q-181 0 -298.5 122.5t-117.5 305.5zM226 413q0 -65 20 -118.5t70 -90.5t123 -37q105 0 158.5 72t53.5 174
q0 101 -54.5 173.5t-157.5 72.5q-102 0 -157.5 -72.5t-55.5 -173.5z" />
    <glyph glyph-name="Otilde" unicode="&#xd5;" horiz-adv-x="877" 
d="M429 954q-40 19 -76 19q-14 0 -25.5 -11.5t-15.5 -23.5l-4 -11h-101q1 7 3.5 18.5t13 41t24 52.5t39 41.5t56.5 18.5q17 0 43 -6.5t44 -13.5l17 -7q40 -19 76 -19q14 0 25.5 11.5t15.5 23.5l4 11h101q-1 -7 -3.5 -18.5t-13 -41t-24 -52.5t-39 -41.5t-56.5 -18.5
q-17 0 -43 6.5t-44 13.5zM23 413q0 179 122 303t294 124q173 0 294 -123.5t121 -303.5q0 -181 -119 -304.5t-296 -123.5q-181 0 -298.5 122.5t-117.5 305.5zM226 413q0 -65 20 -118.5t70 -90.5t123 -37q105 0 158.5 72t53.5 174q0 101 -54.5 173.5t-157.5 72.5
q-102 0 -157.5 -72.5t-55.5 -173.5z" />
    <glyph glyph-name="Odieresis" unicode="&#xd6;" horiz-adv-x="877" 
d="M320 1103q38 0 65 -27t27 -65t-27 -65t-65 -27t-65 27t-27 65t27 65t65 27zM557 1103q38 0 65 -27t27 -65t-27 -65t-65 -27t-65 27t-27 65t27 65t65 27zM23 413q0 179 122 303t294 124q173 0 294 -123.5t121 -303.5q0 -181 -119 -304.5t-296 -123.5q-181 0 -298.5 122.5
t-117.5 305.5zM226 413q0 -65 20 -118.5t70 -90.5t123 -37q105 0 158.5 72t53.5 174q0 101 -54.5 173.5t-157.5 72.5q-102 0 -157.5 -72.5t-55.5 -173.5z" />
    <glyph glyph-name="multiply" unicode="&#xd7;" horiz-adv-x="633" 
d="M424 414l153 -152l-107 -108l-153 153l-153 -153l-108 109l152 152l-152 153l108 107l152 -152l153 152l108 -108z" />
    <glyph glyph-name="Oslash" unicode="&#xd8;" horiz-adv-x="877" 
d="M122 128q-99 118 -99 285q0 179 122 303t294 124q109 0 205 -55l54 68l112 -86l-58 -73q102 -120 102 -281q0 -181 -119 -304.5t-296 -123.5q-115 0 -209 53l-51 -65l-112 86zM226 413q0 -70 23 -125l279 352q-40 19 -89 19q-102 0 -157.5 -72.5t-55.5 -173.5zM651 413
q0 67 -25 123l-279 -351q39 -18 92 -18q105 0 158.5 72t53.5 174z" />
    <glyph glyph-name="Ugrave" unicode="&#xd9;" horiz-adv-x="744" 
d="M138 1039l91 115l203 -176l-56 -77zM506 825h188v-492q0 -157 -84 -252.5t-238 -95.5t-238 95.5t-84 252.5v492h188v-437q0 -117 32 -167.5t102 -50.5t102 50.5t32 167.5v437z" />
    <glyph glyph-name="Uacute" unicode="&#xda;" horiz-adv-x="744" 
d="M312 899l-56 77l203 176l91 -115zM506 825h188v-492q0 -157 -84 -252.5t-238 -95.5t-238 95.5t-84 252.5v492h188v-437q0 -117 32 -167.5t102 -50.5t102 50.5t32 167.5v437z" />
    <glyph glyph-name="Ucircumflex" unicode="&#xdb;" horiz-adv-x="744" 
d="M220 902l-68 91l221 162l221 -162l-68 -91l-153 112zM506 825h188v-492q0 -157 -84 -252.5t-238 -95.5t-238 95.5t-84 252.5v492h188v-437q0 -117 32 -167.5t102 -50.5t102 50.5t32 167.5v437z" />
    <glyph glyph-name="Udieresis" unicode="&#xdc;" horiz-adv-x="744" 
d="M251 1099q38 0 65 -27t27 -65t-27 -65t-65 -27t-65 27t-27 65t27 65t65 27zM488 1099q38 0 65 -27t27 -65t-27 -65t-65 -27t-65 27t-27 65t27 65t65 27zM506 825h188v-492q0 -157 -84 -252.5t-238 -95.5t-238 95.5t-84 252.5v492h188v-437q0 -117 32 -167.5t102 -50.5
t102 50.5t32 167.5v437z" />
    <glyph glyph-name="Yacute" unicode="&#xdd;" horiz-adv-x="736" 
d="M307 899l-56 77l203 176l91 -115zM274 370l-304 455h226l172 -264l172 264h226l-304 -455v-370h-188v370z" />
    <glyph glyph-name="Thorn" unicode="&#xde;" horiz-adv-x="666" 
d="M60 825h188v-153h113q126 0 204 -65t78 -189t-79 -194.5t-203 -70.5h-113v-153h-188v825zM248 303h53q139 0 139 109q0 110 -139 110h-53v-219z" />
    <glyph glyph-name="germandbls" unicode="&#xdf;" horiz-adv-x="656" 
d="M326 147q52 0 85.5 32.5t33.5 84.5q0 57 -31.5 91t-87.5 34v135q45 0 76.5 30t31.5 76q0 45 -24 70.5t-67 25.5q-28 0 -52 -24.5t-24 -65.5v-636h-177v622q0 110 75 181.5t178 71.5q115 -2 186.5 -71.5t71.5 -173.5q0 -114 -100 -170q132 -61 132 -205q0 -118 -86.5 -194
t-220.5 -76v162z" />
    <glyph glyph-name="agrave" unicode="&#xe0;" 
d="M105 725l91 115l203 -176l-56 -77zM23 256q0 -114 72 -192.5t183 -78.5q102 0 168 73h2v-58h175v513h-177v-49q-66 64 -168 64q-111 0 -183 -79t-72 -193zM211 256q0 53 34.5 87t85.5 34q50 0 84.5 -34t34.5 -87q0 -52 -33.5 -86t-85.5 -34q-54 0 -87 33.5t-33 86.5z" />
    <glyph glyph-name="aacute" unicode="&#xe1;" 
d="M339 587l-56 77l203 176l91 -115zM23 256q0 -114 72 -192.5t183 -78.5q102 0 168 73h2v-58h175v513h-177v-49q-66 64 -168 64q-111 0 -183 -79t-72 -193zM211 256q0 53 34.5 87t85.5 34q50 0 84.5 -34t34.5 -87q0 -52 -33.5 -86t-85.5 -34q-54 0 -87 33.5t-33 86.5z" />
    <glyph glyph-name="acircumflex" unicode="&#xe2;" 
d="M188 587l-68 91l221 162l221 -162l-68 -91l-153 112zM23 256q0 -114 72 -192.5t183 -78.5q102 0 168 73h2v-58h175v513h-177v-49q-66 64 -168 64q-111 0 -183 -79t-72 -193zM211 256q0 53 34.5 87t85.5 34q50 0 84.5 -34t34.5 -87q0 -52 -33.5 -86t-85.5 -34
q-54 0 -87 33.5t-33 86.5z" />
    <glyph glyph-name="atilde" unicode="&#xe3;" 
d="M332 642q-40 19 -76 19q-14 0 -25.5 -11.5t-15.5 -23.5l-4 -11h-101q1 7 3.5 18.5t13 41t24 52.5t39 41.5t56.5 18.5q17 0 43 -6.5t43 -13.5l18 -7q40 -19 76 -19q14 0 25.5 11.5t15.5 23.5l4 11h101q-1 -7 -3.5 -18.5t-13 -41t-24 -52.5t-39 -41.5t-56.5 -18.5
q-17 0 -43 6.5t-43 13.5zM23 256q0 -114 72 -192.5t183 -78.5q102 0 168 73h2v-58h175v513h-177v-49q-66 64 -168 64q-111 0 -183 -79t-72 -193zM211 256q0 53 34.5 87t85.5 34q50 0 84.5 -34t34.5 -87q0 -52 -33.5 -86t-85.5 -34q-54 0 -87 33.5t-33 86.5z" />
    <glyph glyph-name="adieresis" unicode="&#xe4;" 
d="M223 791q38 0 65 -27t27 -65t-27 -65t-65 -27t-65 27t-27 65t27 65t65 27zM460 791q38 0 65 -27t27 -65t-27 -65t-65 -27t-65 27t-27 65t27 65t65 27zM23 256q0 -114 72 -192.5t183 -78.5q102 0 168 73h2v-58h175v513h-177v-49q-66 64 -168 64q-111 0 -183 -79t-72 -193z
M211 256q0 53 34.5 87t85.5 34q50 0 84.5 -34t34.5 -87q0 -52 -33.5 -86t-85.5 -34q-54 0 -87 33.5t-33 86.5z" />
    <glyph glyph-name="aring" unicode="&#xe5;" 
d="M180 733q0 62 46.5 102t114.5 40q69 0 115 -40t46 -102q0 -63 -45 -103t-116 -40q-72 0 -116.5 40t-44.5 103zM280 733q0 -27 17 -45.5t44 -18.5q26 0 43.5 18.5t17.5 45.5q0 26 -18 44t-43 18t-43 -18.5t-18 -43.5zM23 256q0 114 72 193t183 79q102 0 168 -64v49h177
v-513h-175v58h-2q-66 -73 -168 -73q-111 0 -183 78.5t-72 192.5zM211 256q0 -53 33 -86.5t87 -33.5q52 0 85.5 34t33.5 86q0 53 -34.5 87t-84.5 34q-51 0 -85.5 -34t-34.5 -87z" />
    <glyph glyph-name="ae" unicode="&#xe6;" horiz-adv-x="943" 
d="M56 478q7 6 21.5 14t65 22t108.5 14q131 0 212 -64q78 64 182 64q122 0 198.5 -70.5t76.5 -201.5q0 -18 -1 -24h-372q0 -54 35 -80t76 -26q43 0 68 11.5t57 45.5l128 -64q-80 -134 -266 -134q-129 0 -213 94q-3 -4 -8 -10t-24 -22.5t-42 -29t-62 -22.5t-83 -10
q-82 0 -136 41.5t-54 109.5q0 71 49 118t134 47q101 0 157 -39v37q0 39 -35 63.5t-77 24.5q-41 0 -75.5 -7.5t-49.5 -15.5l-14 -7zM747 330q-6 40 -31.5 61.5t-65.5 21.5q-44 0 -70 -23t-28 -60h195zM199 151q0 -27 22 -43.5t57 -16.5q34 0 59.5 18.5t25.5 41.5t-25 39.5
t-60 16.5q-36 0 -57.5 -14.5t-21.5 -41.5z" />
    <glyph glyph-name="ccedilla" unicode="&#xe7;" horiz-adv-x="491" 
d="M216 0q-83 28 -138 98t-55 157q0 112 85.5 192.5t198.5 80.5q51 0 94 -12t61 -24l17 -12l-60 -121q-33 24 -86 24q-50 0 -86 -37t-36 -89q0 -53 36 -90t86 -37q24 0 45.5 6t31.5 12l9 6l60 -123q-7 -5 -19.5 -12.5t-57 -20.5t-95.5 -13q-12 0 -18 1l-16 -49q47 0 88 -27
t41 -75q0 -53 -37.5 -91t-114.5 -38q-40 0 -78.5 21t-57.5 41l-18 21l72 54q4 -5 11.5 -13t29 -21t41.5 -13q26 0 38 11.5t12 27.5q0 22 -19 33.5t-43 11.5q-16 0 -29 -2t-17 -4l-5 -3l-10 8z" />
    <glyph glyph-name="egrave" unicode="&#xe8;" horiz-adv-x="603" 
d="M65 725l91 115l203 -176l-56 -77zM207 232q0 -54 35 -80t76 -26q43 0 68 11.5t57 45.5l128 -64q-80 -134 -266 -134q-116 0 -199 79.5t-83 191.5t83 192t199 80q122 0 198.5 -70.5t76.5 -201.5q0 -18 -1 -24h-372zM407 330q-6 40 -31.5 61.5t-65.5 21.5q-44 0 -70 -23
t-28 -60h195z" />
    <glyph glyph-name="eacute" unicode="&#xe9;" horiz-adv-x="603" 
d="M299 587l-56 77l203 176l91 -115zM207 232q0 -54 35 -80t76 -26q43 0 68 11.5t57 45.5l128 -64q-80 -134 -266 -134q-116 0 -199 79.5t-83 191.5t83 192t199 80q122 0 198.5 -70.5t76.5 -201.5q0 -18 -1 -24h-372zM407 330q-6 40 -31.5 61.5t-65.5 21.5q-44 0 -70 -23
t-28 -60h195z" />
    <glyph glyph-name="ecircumflex" unicode="&#xea;" horiz-adv-x="603" 
d="M148 587l-68 91l221 162l221 -162l-68 -91l-153 112zM207 232q0 -54 35 -80t76 -26q43 0 68 11.5t57 45.5l128 -64q-80 -134 -266 -134q-116 0 -199 79.5t-83 191.5t83 192t199 80q122 0 198.5 -70.5t76.5 -201.5q0 -18 -1 -24h-372zM407 330q-6 40 -31.5 61.5
t-65.5 21.5q-44 0 -70 -23t-28 -60h195z" />
    <glyph glyph-name="edieresis" unicode="&#xeb;" horiz-adv-x="603" 
d="M183 791q38 0 65 -27t27 -65t-27 -65t-65 -27t-65 27t-27 65t27 65t65 27zM420 791q38 0 65 -27t27 -65t-27 -65t-65 -27t-65 27t-27 65t27 65t65 27zM207 232q0 -54 35 -80t76 -26q43 0 68 11.5t57 45.5l128 -64q-80 -134 -266 -134q-116 0 -199 79.5t-83 191.5t83 192
t199 80q122 0 198.5 -70.5t76.5 -201.5q0 -18 -1 -24h-372zM407 330q-6 40 -31.5 61.5t-65.5 21.5q-44 0 -70 -23t-28 -60h195z" />
    <glyph glyph-name="igrave" unicode="&#xec;" horiz-adv-x="297" 
d="M-87 725l91 115l203 -176l-56 -77zM237 513h-177v-513h177v513z" />
    <glyph glyph-name="iacute" unicode="&#xed;" horiz-adv-x="297" 
d="M146 587l-56 77l203 176l91 -115zM237 513h-177v-513h177v513z" />
    <glyph glyph-name="icircumflex" unicode="&#xee;" horiz-adv-x="297" 
d="M-4 587l-68 91l221 162l221 -162l-68 -91l-153 112zM237 513h-177v-513h177v513z" />
    <glyph glyph-name="idieresis" unicode="&#xef;" horiz-adv-x="297" 
d="M30 791q38 0 65 -27t27 -65t-27 -65t-65 -27t-65 27t-27 65t27 65t65 27zM267 791q38 0 65 -27t27 -65t-27 -65t-65 -27t-65 27t-27 65t27 65t65 27zM237 513h-177v-513h177v513z" />
    <glyph glyph-name="eth" unicode="&#xf0;" horiz-adv-x="684" 
d="M41 256q0 79 42 143.5t100.5 96.5t115.5 32q61 0 90 -16q-44 63 -117 115l-83 -82l-77 77l62 62q-28 13 -56 23.5t-42 14.5l-13 3l42 150q85 -19 188 -72l73 72l76 -78l-52 -52q266 -187 266 -489q0 -118 -86.5 -194.5t-219.5 -76.5q-138 0 -223.5 76t-85.5 195zM229 256
q0 -53 33 -86.5t87 -33.5q52 0 85.5 34t33.5 86v5q-2 51 -36.5 83.5t-82.5 32.5q-51 0 -85.5 -34t-34.5 -87z" />
    <glyph glyph-name="ntilde" unicode="&#xf1;" horiz-adv-x="661" 
d="M321 642q-40 19 -76 19q-14 0 -25.5 -11.5t-15.5 -23.5l-4 -11h-101q1 7 3.5 18.5t13 41t24 52.5t39 41.5t56.5 18.5q17 0 43 -6.5t44 -13.5l17 -7q40 -19 76 -19q14 0 25.5 11.5t15.5 23.5l4 11h101q-1 -7 -3.5 -18.5t-13 -41t-24 -52.5t-39 -41.5t-56.5 -18.5
q-17 0 -43 6.5t-44 13.5zM237 290q0 38 32.5 69t72.5 31q41 0 66.5 -30t25.5 -70v-290h177v338q0 51 -21.5 89.5t-56 59.5t-72 31t-75.5 10q-78 0 -147 -69h-2v54h-177v-513h177v290z" />
    <glyph glyph-name="ograve" unicode="&#xf2;" horiz-adv-x="661" 
d="M94 725l91 115l203 -176l-56 -77zM23 256q0 -119 85.5 -195t223.5 -76q133 0 219.5 76.5t86.5 194.5t-88.5 195t-217.5 77q-131 0 -220 -76.5t-89 -195.5zM211 256q0 53 34.5 87t85.5 34q50 0 84.5 -34t34.5 -87q0 -52 -33.5 -86t-85.5 -34q-54 0 -87 33.5t-33 86.5z" />
    <glyph glyph-name="oacute" unicode="&#xf3;" horiz-adv-x="661" 
d="M288 587l-56 77l203 176l91 -115zM23 256q0 -119 85.5 -195t223.5 -76q133 0 219.5 76.5t86.5 194.5t-88.5 195t-217.5 77q-131 0 -220 -76.5t-89 -195.5zM211 256q0 53 34.5 87t85.5 34q50 0 84.5 -34t34.5 -87q0 -52 -33.5 -86t-85.5 -34q-54 0 -87 33.5t-33 86.5z" />
    <glyph glyph-name="ocircumflex" unicode="&#xf4;" horiz-adv-x="661" 
d="M177 587l-68 91l221 162l221 -162l-68 -91l-153 112zM23 256q0 -119 85.5 -195t223.5 -76q133 0 219.5 76.5t86.5 194.5t-88.5 195t-217.5 77q-131 0 -220 -76.5t-89 -195.5zM211 256q0 53 34.5 87t85.5 34q50 0 84.5 -34t34.5 -87q0 -52 -33.5 -86t-85.5 -34
q-54 0 -87 33.5t-33 86.5z" />
    <glyph glyph-name="otilde" unicode="&#xf5;" horiz-adv-x="661" 
d="M321 642q-40 19 -76 19q-14 0 -25.5 -11.5t-15.5 -23.5l-4 -11h-101q1 7 3.5 18.5t13 41t24 52.5t39 41.5t56.5 18.5q17 0 43 -6.5t44 -13.5l17 -7q40 -19 76 -19q14 0 25.5 11.5t15.5 23.5l4 11h101q-1 -7 -3.5 -18.5t-13 -41t-24 -52.5t-39 -41.5t-56.5 -18.5
q-17 0 -43 6.5t-44 13.5zM23 256q0 -119 85.5 -195t223.5 -76q133 0 219.5 76.5t86.5 194.5t-88.5 195t-217.5 77q-131 0 -220 -76.5t-89 -195.5zM211 256q0 53 34.5 87t85.5 34q50 0 84.5 -34t34.5 -87q0 -52 -33.5 -86t-85.5 -34q-54 0 -87 33.5t-33 86.5z" />
    <glyph glyph-name="odieresis" unicode="&#xf6;" horiz-adv-x="661" 
d="M212 791q38 0 65 -27t27 -65t-27 -65t-65 -27t-65 27t-27 65t27 65t65 27zM449 791q38 0 65 -27t27 -65t-27 -65t-65 -27t-65 27t-27 65t27 65t65 27zM23 256q0 -119 85.5 -195t223.5 -76q133 0 219.5 76.5t86.5 194.5t-88.5 195t-217.5 77q-131 0 -220 -76.5t-89 -195.5
zM211 256q0 53 34.5 87t85.5 34q50 0 84.5 -34t34.5 -87q0 -52 -33.5 -86t-85.5 -34q-54 0 -87 33.5t-33 86.5z" />
    <glyph glyph-name="divide" unicode="&#xf7;" horiz-adv-x="633" 
d="M315 720q35 0 58.5 -24t23.5 -58q0 -33 -24 -56.5t-58 -23.5q-33 0 -56.5 23.5t-23.5 56.5q0 34 23.5 58t56.5 24zM60 338v153h513v-153h-513zM315 271q35 0 58.5 -23.5t23.5 -58.5q0 -33 -24 -56.5t-58 -23.5q-33 0 -56.5 23.5t-23.5 56.5q0 34 23.5 58t56.5 24z" />
    <glyph glyph-name="oslash" unicode="&#xf8;" horiz-adv-x="661" 
d="M623 538l45 -54l-85 -69q55 -68 55 -159q0 -118 -86.5 -194.5t-219.5 -76.5q-124 0 -205 61l-89 -72l-45 54l83 67q-53 69 -53 161q0 119 89 195.5t220 76.5q116 0 201 -63zM211 256q0 -26 7 -46l181 146q-31 21 -68 21q-51 0 -85.5 -34t-34.5 -87zM331 136q52 0 85.5 34
t33.5 86q0 23 -8 45l-180 -146q30 -19 69 -19z" />
    <glyph glyph-name="ugrave" unicode="&#xf9;" horiz-adv-x="656" 
d="M133 725l91 115l203 -176l-56 -77zM227 279q0 -78 23.5 -114t77.5 -36t77.5 36t23.5 114v234h177v-247q0 -133 -69 -207t-209 -74t-209 74t-69 207v247h177v-234z" />
    <glyph glyph-name="uacute" unicode="&#xfa;" horiz-adv-x="656" 
d="M325 587l-56 77l203 176l91 -115zM227 279q0 -78 23.5 -114t77.5 -36t77.5 36t23.5 114v234h177v-247q0 -133 -69 -207t-209 -74t-209 74t-69 207v247h177v-234z" />
    <glyph glyph-name="ucircumflex" unicode="&#xfb;" horiz-adv-x="656" 
d="M175 587l-68 91l221 162l221 -162l-68 -91l-153 112zM227 279q0 -78 23.5 -114t77.5 -36t77.5 36t23.5 114v234h177v-247q0 -133 -69 -207t-209 -74t-209 74t-69 207v247h177v-234z" />
    <glyph glyph-name="udieresis" unicode="&#xfc;" horiz-adv-x="656" 
d="M206 791q38 0 65 -27t27 -65t-27 -65t-65 -27t-65 27t-27 65t27 65t65 27zM443 791q38 0 65 -27t27 -65t-27 -65t-65 -27t-65 27t-27 65t27 65t65 27zM227 279q0 -78 23.5 -114t77.5 -36t77.5 36t23.5 114v234h177v-247q0 -133 -69 -207t-209 -74t-209 74t-69 207v247
h177v-234z" />
    <glyph glyph-name="yacute" unicode="&#xfd;" horiz-adv-x="603" 
d="M242 587l-56 77l203 176l91 -115zM309 266l120 247h184l-373 -773h-184l167 340l-233 433h194z" />
    <glyph glyph-name="thorn" unicode="&#xfe;" 
d="M660 256q0 -114 -72 -192.5t-183 -78.5q-102 0 -168 73h-2v-318h-175v1120h177v-396q66 64 168 64q111 0 183 -79t72 -193zM472 256q0 53 -34.5 87t-85.5 34q-50 0 -84.5 -34t-34.5 -87q0 -52 33.5 -86t85.5 -34q54 0 87 33.5t33 86.5z" />
    <glyph glyph-name="ydieresis" unicode="&#xff;" horiz-adv-x="603" 
d="M194 791q38 0 65 -27t27 -65t-27 -65t-65 -27t-65 27t-27 65t27 65t65 27zM431 791q38 0 65 -27t27 -65t-27 -65t-65 -27t-65 27t-27 65t27 65t65 27zM309 266l120 247h184l-373 -773h-184l167 340l-233 433h194z" />
    <glyph glyph-name="Amacron" unicode="&#x100;" horiz-adv-x="784" 
d="M188 946v120h408v-120h-408zM305 825h174l333 -825h-202l-61 165h-314l-61 -165h-202zM299 330h186l-92 240h-2z" />
    <glyph glyph-name="amacron" unicode="&#x101;" 
d="M137 634v120h408v-120h-408zM23 256q0 -114 72 -192.5t183 -78.5q102 0 168 73h2v-58h175v513h-177v-49q-66 64 -168 64q-111 0 -183 -79t-72 -193zM211 256q0 53 34.5 87t85.5 34q50 0 84.5 -34t34.5 -87q0 -52 -33.5 -86t-85.5 -34q-54 0 -87 33.5t-33 86.5z" />
    <glyph glyph-name="Abreve" unicode="&#x102;" horiz-adv-x="784" 
d="M623 1121q-9 -81 -72 -131t-159 -50t-159 50t-72 131l126 31q0 -4 1.5 -11t8.5 -25t17.5 -31.5t31 -24.5t46.5 -11t46.5 10.5t31 25.5t17.5 30.5t9 26.5l1 10zM305 825h174l333 -825h-202l-61 165h-314l-61 -165h-202zM299 330h186l-92 240h-2z" />
    <glyph glyph-name="abreve" unicode="&#x103;" 
d="M572 809q-9 -81 -72 -131t-159 -50t-159 50t-72 131l126 31q0 -4 1.5 -11t8.5 -25t17.5 -31.5t31 -24.5t46.5 -11t46.5 10.5t31 25.5t17.5 30.5t8 26.5l2 10zM23 256q0 114 72 193t183 79q102 0 168 -64v49h177v-513h-175v58h-2q-66 -73 -168 -73q-111 0 -183 78.5
t-72 192.5zM211 256q0 -53 33 -86.5t87 -33.5q52 0 85.5 34t33.5 86q0 53 -34.5 87t-84.5 34q-51 0 -85.5 -34t-34.5 -87z" />
    <glyph glyph-name="Aogonek" unicode="&#x104;" horiz-adv-x="784" 
d="M549 -158q0 62 80 158h-19l-61 165h-314l-61 -165h-202l333 825h174l333 -825h-101q-7 -8 -16.5 -21.5t-26 -50.5t-16.5 -68q0 -18 11.5 -28.5t25.5 -10.5t26.5 7.5t18.5 15.5l6 7l72 -54q-2 -3 -5.5 -8t-16 -17t-27.5 -21.5t-38.5 -17.5t-49.5 -8q-47 0 -86.5 29
t-39.5 88zM299 330h186l-92 240h-2z" />
    <glyph glyph-name="aogonek" unicode="&#x105;" 
d="M368 -158q0 65 80 158v58h-2q-66 -73 -168 -73q-111 0 -183 78.5t-72 192.5t72 193t183 79q102 0 168 -64v49h177v-513h-93q-7 -8 -16.5 -21.5t-26 -50.5t-16.5 -68q0 -18 11.5 -28.5t25.5 -10.5t26.5 7.5t18.5 15.5l6 7l72 -54q-2 -3 -5.5 -8t-16 -17t-27.5 -21.5
t-38.5 -17.5t-49.5 -8q-47 0 -86.5 29t-39.5 88zM211 256q0 -53 33 -86.5t87 -33.5q52 0 85.5 34t33.5 86q0 53 -34.5 87t-84.5 34q-51 0 -85.5 -34t-34.5 -87z" />
    <glyph glyph-name="Cacute" unicode="&#x106;" horiz-adv-x="753" 
d="M327 899l-56 77l203 176l91 -115zM658 603q-61 56 -183 56q-110 0 -175.5 -73.5t-65.5 -172.5q0 -100 63 -173t178 -73q123 0 183 53v-205q-67 -30 -183 -30q-193 0 -322.5 123.5t-129.5 304.5q0 178 134.5 302.5t317.5 124.5q63 0 102 -6.5t81 -25.5v-205z" />
    <glyph glyph-name="cacute" unicode="&#x107;" horiz-adv-x="491" 
d="M247 587l-56 77l203 176l91 -115zM333 383q-50 0 -86 -37t-36 -89q0 -53 36 -90t86 -37q24 0 45.5 6t31.5 12l9 6l60 -123q-7 -5 -19.5 -12.5t-57 -20.5t-95.5 -13q-113 0 -198.5 79.5t-85.5 190.5q0 112 85.5 192.5t198.5 80.5q51 0 94 -12t61 -24l17 -12l-60 -121
q-33 24 -86 24z" />
    <glyph glyph-name="Ccaron" unicode="&#x10c;" horiz-adv-x="753" 
d="M210 1061l68 91l153 -112l153 112l68 -91l-221 -162zM658 603q-61 56 -183 56q-110 0 -175.5 -73.5t-65.5 -172.5q0 -100 63 -173t178 -73q123 0 183 53v-205q-67 -30 -183 -30q-193 0 -322.5 123.5t-129.5 304.5q0 178 134.5 302.5t317.5 124.5q63 0 102 -6.5t81 -25.5
v-205z" />
    <glyph glyph-name="ccaron" unicode="&#x10d;" horiz-adv-x="491" 
d="M36 749l68 91l153 -112l153 112l68 -91l-221 -162zM333 383q-50 0 -86 -37t-36 -89q0 -53 36 -90t86 -37q24 0 45.5 6t31.5 12l9 6l60 -123q-7 -5 -19.5 -12.5t-57 -20.5t-95.5 -13q-113 0 -198.5 79.5t-85.5 190.5q0 112 85.5 192.5t198.5 80.5q51 0 94 -12t61 -24
l17 -12l-60 -121q-33 24 -86 24z" />
    <glyph glyph-name="Dcaron" unicode="&#x10e;" horiz-adv-x="738" 
d="M139 1061l68 91l153 -112l153 112l68 -91l-221 -162zM60 825h239q172 0 294 -117.5t122 -294.5q0 -178 -121.5 -295.5t-294.5 -117.5h-239v825zM248 657v-489h29q103 0 168.5 69.5t66.5 174.5q0 105 -65.5 175t-169.5 70h-29z" />
    <glyph glyph-name="dcaron" unicode="&#x10f;" 
d="M23 256q0 114 72 193t183 79q102 0 168 -64v396h177v-860h-175v58h-2q-66 -73 -168 -73q-111 0 -183 78.5t-72 192.5zM756 824q38 0 64 -26t26 -64q0 -114 -130 -221l-40 31q47 45 59 110q-29 7 -48 29t-19 51q0 37 26 63.5t62 26.5zM211 256q0 -53 33 -86.5t87 -33.5
q52 0 85.5 34t33.5 86q0 53 -34.5 87t-84.5 34q-51 0 -85.5 -34t-34.5 -87z" />
    <glyph glyph-name="Dcroat" unicode="&#x110;" horiz-adv-x="776" 
d="M16 489h82v336h239q172 0 294 -117.5t122 -294.5q0 -178 -121.5 -295.5t-294.5 -117.5h-239v336h-82v153zM286 657v-168h109v-153h-109v-168h29q103 0 168.5 69.5t66.5 174.5q0 105 -65.5 175t-169.5 70h-29z" />
    <glyph glyph-name="dcroat" unicode="&#x111;" 
d="M321 628v114h125v118h177v-118h60v-114h-60v-628h-175v58h-2q-66 -73 -168 -73q-111 0 -183 78.5t-72 192.5t72 193t183 79q102 0 168 -64v164h-125zM211 256q0 -53 33 -86.5t87 -33.5q52 0 85.5 34t33.5 86q0 53 -34.5 87t-84.5 34q-51 0 -85.5 -34t-34.5 -87z" />
    <glyph glyph-name="Emacron" unicode="&#x112;" horiz-adv-x="580" 
d="M86 946v120h408v-120h-408zM60 825h472v-165h-284v-164h272v-165h-272v-166h284v-165h-472v825z" />
    <glyph glyph-name="emacron" unicode="&#x113;" horiz-adv-x="603" 
d="M97 634v120h408v-120h-408zM207 232q0 -54 35 -80t76 -26q43 0 68 11.5t57 45.5l128 -64q-80 -134 -266 -134q-116 0 -199 79.5t-83 191.5t83 192t199 80q122 0 198.5 -70.5t76.5 -201.5q0 -18 -1 -24h-372zM407 330q-6 40 -31.5 61.5t-65.5 21.5q-44 0 -70 -23t-28 -60
h195z" />
    <glyph glyph-name="Edotaccent" unicode="&#x116;" horiz-adv-x="580" 
d="M290 1103q38 0 65 -27t27 -65t-27 -65t-65 -27t-65 27t-27 65t27 65t65 27zM60 825h472v-165h-284v-164h272v-165h-272v-166h284v-165h-472v825z" />
    <glyph glyph-name="edotaccent" unicode="&#x117;" horiz-adv-x="603" 
d="M301 791q38 0 65 -27t27 -65t-27 -65t-65 -27t-65 27t-27 65t27 65t65 27zM207 232q0 -54 35 -80t76 -26q43 0 68 11.5t57 45.5l128 -64q-80 -134 -266 -134q-116 0 -199 79.5t-83 191.5t83 192t199 80q122 0 198.5 -70.5t76.5 -201.5q0 -18 -1 -24h-372zM407 330
q-6 40 -31.5 61.5t-65.5 21.5q-44 0 -70 -23t-28 -60h195z" />
    <glyph glyph-name="Eogonek" unicode="&#x118;" horiz-adv-x="580" 
d="M60 825h472v-165h-284v-164h272v-165h-272v-166h284v-165h-97q-7 -8 -16.5 -21.5t-26 -50.5t-16.5 -68q0 -18 11.5 -28.5t25.5 -10.5t26.5 7.5t18.5 15.5l6 7l72 -54q-2 -3 -5.5 -8t-16 -17t-27.5 -21.5t-38.5 -17.5t-49.5 -8q-47 0 -86.5 29t-39.5 88q0 62 80 158h-293
v825z" />
    <glyph glyph-name="eogonek" unicode="&#x119;" horiz-adv-x="603" 
d="M207 232q0 -54 35 -80t76 -26q43 0 68 11.5t57 45.5l128 -64q-54 -89 -153 -119q-7 -8 -16.5 -21.5t-26 -50.5t-16.5 -68q0 -18 11.5 -28.5t25.5 -10.5t26.5 7.5t18.5 15.5l6 7l72 -54q-2 -3 -5.5 -8t-16 -17t-27.5 -21.5t-38.5 -17.5t-49.5 -8q-47 0 -86.5 29t-39.5 88
q0 58 68 144q-3 0 -9.5 -0.5t-9.5 -0.5q-116 0 -199 79.5t-83 191.5t83 192t199 80q122 0 198.5 -70.5t76.5 -201.5q0 -18 -1 -24h-372zM407 330q-6 40 -31.5 61.5t-65.5 21.5q-44 0 -70 -23t-28 -60h195z" />
    <glyph glyph-name="Ecaron" unicode="&#x11a;" horiz-adv-x="580" 
d="M69 1061l68 91l153 -112l153 112l68 -91l-221 -162zM60 825h472v-165h-284v-164h272v-165h-272v-166h284v-165h-472v825z" />
    <glyph glyph-name="ecaron" unicode="&#x11b;" horiz-adv-x="603" 
d="M80 749l68 91l153 -112l153 112l68 -91l-221 -162zM207 232q0 -54 35 -80t76 -26q43 0 68 11.5t57 45.5l128 -64q-80 -134 -266 -134q-116 0 -199 79.5t-83 191.5t83 192t199 80q122 0 198.5 -70.5t76.5 -201.5q0 -18 -1 -24h-372zM407 330q-6 40 -31.5 61.5t-65.5 21.5
q-44 0 -70 -23t-28 -60h195z" />
    <glyph glyph-name="Gcommaaccent" unicode="&#x122;" horiz-adv-x="829" 
d="M425 462h381v-179q-32 -147 -140 -222.5t-241 -75.5q-167 0 -284.5 125t-117.5 302q0 180 115 304t287 124q201 0 318 -141l-123 -135q-66 106 -184 106q-87 0 -148.5 -75.5t-61.5 -182.5q0 -105 61.5 -179.5t148.5 -74.5q72 0 125.5 43.5t53.5 115.5h-190v145zM413 -40
q-36 0 -62 -26.5t-26 -63.5q0 -29 19 -51t48 -29q-5 -29 -20 -56.5t-27 -40.5l-12 -13l40 -31q130 107 130 221q0 38 -26.5 64t-63.5 26z" />
    <glyph glyph-name="gcommaaccent" unicode="&#x123;" 
d="M342 607q-38 0 -64 26.5t-26 63.5q0 114 130 221l40 -31q-47 -45 -59 -110q29 -7 48 -29t19 -51q0 -37 -26 -63.5t-62 -26.5zM182 -55q40 -66 139 -66q46 0 85.5 29.5t39.5 90.5v38q-47 -52 -168 -52q-111 0 -183 78.5t-72 192.5t72 193t183 79q99 0 165 -61h3v46h177
v-527q0 -125 -83 -193t-219 -68q-220 0 -284 149zM211 256q0 -53 33 -86.5t87 -33.5q52 0 85.5 34t33.5 86q0 53 -34.5 87t-84.5 34q-51 0 -85.5 -34t-34.5 -87z" />
    <glyph glyph-name="Imacron" unicode="&#x12a;" horiz-adv-x="308" 
d="M-50 946v120h408v-120h-408zM60 825h188v-825h-188v825z" />
    <glyph glyph-name="imacron" unicode="&#x12b;" horiz-adv-x="297" 
d="M-55 634v120h408v-120h-408zM237 513h-177v-513h177v513z" />
    <glyph glyph-name="Iogonek" unicode="&#x12e;" horiz-adv-x="308" 
d="M60 825h188v-825h-53q-7 -8 -16.5 -21.5t-26 -50.5t-16.5 -68q0 -18 11.5 -28.5t25.5 -10.5t26.5 7.5t18.5 15.5l6 7l72 -54q-2 -3 -5.5 -8t-16 -17t-27.5 -21.5t-38.5 -17.5t-49.5 -8q-47 0 -86.5 29t-39.5 88q0 62 80 158h-53v825z" />
    <glyph glyph-name="iogonek" unicode="&#x12f;" horiz-adv-x="297" 
d="M151 830q43 0 74 -31t31 -74t-31 -74t-74 -31t-74 31t-31 74t31 74t74 31zM29 -158q0 -59 39.5 -88t86.5 -29q41 0 75 18t48 36l14 18l-72 54q-20 -30 -51 -30q-14 0 -25.5 10.5t-11.5 28.5q0 31 15 66t29 54l15 20h46v513h-177v-513h49q-80 -93 -80 -158z" />
    <glyph glyph-name="dotlessi" unicode="&#x131;" horiz-adv-x="269" 
d="M223 0h-177v513h177v-513z" />
    <glyph glyph-name="Kcommaaccent" unicode="&#x136;" horiz-adv-x="787" 
d="M427 434l384 -434h-259l-304 350v-350h-188v825h188v-337l283 337h228zM392 -40q-36 0 -62 -26.5t-26 -63.5q0 -29 19 -51t48 -29q-5 -29 -20 -56.5t-27 -40.5l-12 -13l40 -31q130 107 130 221q0 38 -26 64t-64 26z" />
    <glyph glyph-name="kcommaaccent" unicode="&#x137;" horiz-adv-x="646" 
d="M416 513h230l-244 -245l268 -268h-228l-205 205v-205h-177v860h177v-526zM322 -40q38 0 64 -26t26 -64q0 -114 -130 -221l-40 31q47 45 59 110q-29 7 -48 29t-19 51q0 37 26 63.5t62 26.5z" />
    <glyph glyph-name="Lacute" unicode="&#x139;" horiz-adv-x="565" 
d="M192 899l-56 77l203 176l91 -115zM60 825h188v-660h284v-165h-472v825z" />
    <glyph glyph-name="lacute" unicode="&#x13a;" horiz-adv-x="297" 
d="M116 934l-56 77l203 176l91 -115zM237 860h-177v-860h177v860z" />
    <glyph glyph-name="Lcommaaccent" unicode="&#x13b;" horiz-adv-x="565" 
d="M60 825h188v-660h284v-165h-472v825zM281 -40q-36 0 -62 -26.5t-26 -63.5q0 -29 19 -51t48 -29q-5 -29 -20 -56.5t-27 -40.5l-12 -13l40 -31q130 107 130 221q0 38 -26.5 64t-63.5 26z" />
    <glyph glyph-name="lcommaaccent" unicode="&#x13c;" horiz-adv-x="297" 
d="M237 0h-177v860h177v-860zM147 -40q37 0 63.5 -26t26.5 -64q0 -114 -130 -221l-40 31q47 45 59 110q-29 7 -48 29t-19 51q0 37 26 63.5t62 26.5z" />
    <glyph glyph-name="Lcaron" unicode="&#x13d;" horiz-adv-x="565" 
d="M60 825h188v-660h284v-165h-472v825zM417 824q-36 0 -62 -26.5t-26 -63.5q0 -29 19 -51t48 -29q-5 -29 -20 -56.5t-27 -40.5l-12 -13l40 -31q130 107 130 221q0 38 -26.5 64t-63.5 26z" />
    <glyph glyph-name="lcaron" unicode="&#x13e;" horiz-adv-x="297" 
d="M237 0h-177v860h177v-860zM370 824q38 0 64 -26t26 -64q0 -114 -130 -221l-40 31q47 45 59 110q-29 7 -48 29t-19 51q0 37 26 63.5t62 26.5z" />
    <glyph glyph-name="Lslash" unicode="&#x141;" horiz-adv-x="568" 
d="M96 309l-76 -59v153l76 59v363h188v-215l105 83v-153l-105 -83v-292h284v-165h-472v309z" />
    <glyph glyph-name="lslash" unicode="&#x142;" horiz-adv-x="369" 
d="M273 0h-177v310l-76 -60v153l76 60v397h177v-258l76 60v-153l-76 -60v-449z" />
    <glyph glyph-name="Nacute" unicode="&#x143;" horiz-adv-x="826" 
d="M322 899l-56 77l203 176l91 -115zM250 512h-2v-512h-188v825h188l328 -512h2v512h188v-825h-188z" />
    <glyph glyph-name="nacute" unicode="&#x144;" horiz-adv-x="661" 
d="M327 587l-56 77l203 176l91 -115zM237 290q0 38 32.5 69t72.5 31q41 0 66.5 -30t25.5 -70v-290h177v338q0 51 -21.5 89.5t-56 59.5t-72 31t-75.5 10q-78 0 -147 -69h-2v54h-177v-513h177v290z" />
    <glyph glyph-name="Ncommaaccent" unicode="&#x145;" horiz-adv-x="826" 
d="M250 512h-2v-512h-188v825h188l328 -512h2v512h188v-825h-188zM412 -40q-36 0 -62 -26.5t-26 -63.5q0 -29 19 -51t48 -29q-5 -29 -20 -56.5t-27 -40.5l-12 -13l40 -31q130 107 130 221q0 38 -26 64t-64 26z" />
    <glyph glyph-name="ncommaaccent" unicode="&#x146;" horiz-adv-x="661" 
d="M237 0h-177v513h177v-54h2q69 69 147 69q38 0 75.5 -10t72 -31t56 -59.5t21.5 -89.5v-338h-177v290q0 40 -25.5 70t-66.5 30q-40 0 -72.5 -31t-32.5 -69v-290zM329 -40q37 0 63.5 -26t26.5 -64q0 -114 -130 -221l-40 31q47 45 59 110q-29 7 -48 29t-19 51q0 37 26 63.5
t62 26.5z" />
    <glyph glyph-name="Ncaron" unicode="&#x147;" horiz-adv-x="826" 
d="M192 1061l68 91l153 -112l153 112l68 -91l-221 -162zM250 512h-2v-512h-188v825h188l328 -512h2v512h188v-825h-188z" />
    <glyph glyph-name="ncaron" unicode="&#x148;" horiz-adv-x="661" 
d="M109 749l68 91l153 -112l153 112l68 -91l-221 -162zM237 290q0 38 32.5 69t72.5 31q41 0 66.5 -30t25.5 -70v-290h177v338q0 51 -21.5 89.5t-56 59.5t-72 31t-75.5 10q-78 0 -147 -69h-2v54h-177v-513h177v290z" />
    <glyph glyph-name="Omacron" unicode="&#x14c;" horiz-adv-x="877" 
d="M234 946v120h408v-120h-408zM23 413q0 179 122 303t294 124q173 0 294 -123.5t121 -303.5q0 -181 -119 -304.5t-296 -123.5q-181 0 -298.5 122.5t-117.5 305.5zM226 413q0 -65 20 -118.5t70 -90.5t123 -37q105 0 158.5 72t53.5 174q0 101 -54.5 173.5t-157.5 72.5
q-102 0 -157.5 -72.5t-55.5 -173.5z" />
    <glyph glyph-name="omacron" unicode="&#x14d;" horiz-adv-x="661" 
d="M126 634v120h408v-120h-408zM23 256q0 -119 85.5 -195t223.5 -76q133 0 219.5 76.5t86.5 194.5t-88.5 195t-217.5 77q-131 0 -220 -76.5t-89 -195.5zM211 256q0 53 34.5 87t85.5 34q50 0 84.5 -34t34.5 -87q0 -52 -33.5 -86t-85.5 -34q-54 0 -87 33.5t-33 86.5z" />
    <glyph glyph-name="Ohungarumlaut" unicode="&#x150;" horiz-adv-x="877" 
d="M287 899l-56 77l173 196l82 -104zM498 899l-56 77l173 196l82 -104zM23 413q0 179 122 303t294 124q173 0 294 -123.5t121 -303.5q0 -181 -119 -304.5t-296 -123.5q-181 0 -298.5 122.5t-117.5 305.5zM226 413q0 -65 20 -118.5t70 -90.5t123 -37q105 0 158.5 72t53.5 174
q0 101 -54.5 173.5t-157.5 72.5q-102 0 -157.5 -72.5t-55.5 -173.5z" />
    <glyph glyph-name="ohungarumlaut" unicode="&#x151;" horiz-adv-x="661" 
d="M179 587l-56 77l173 196l82 -104zM390 587l-56 77l173 196l82 -104zM23 256q0 -119 85.5 -195t223.5 -76q133 0 219.5 76.5t86.5 194.5t-88.5 195t-217.5 77q-131 0 -220 -76.5t-89 -195.5zM211 256q0 53 34.5 87t85.5 34q50 0 84.5 -34t34.5 -87q0 -52 -33.5 -86
t-85.5 -34q-54 0 -87 33.5t-33 86.5z" />
    <glyph glyph-name="OE" unicode="&#x152;" horiz-adv-x="1010" 
d="M962 660h-284v-164h272v-165h-272v-166h284v-165h-523q-173 0 -294.5 117t-121.5 295t121.5 295.5t294.5 117.5h523v-165zM461 657q-104 0 -169.5 -70t-65.5 -174q0 -105 65.5 -175t169.5 -70h29v489h-29z" />
    <glyph glyph-name="oe" unicode="&#x153;" horiz-adv-x="1021" 
d="M625 232q0 -54 35 -80t76 -26q43 0 68 11.5t57 45.5l128 -64q-80 -134 -266 -134q-53 0 -103.5 20.5t-74.5 40.5l-24 20q-3 -3 -8 -8.5t-24 -19.5t-39.5 -24.5t-54 -19.5t-69.5 -9q-137 0 -220 75.5t-83 195.5q0 119 86 195.5t217 76.5q34 0 67 -8.5t55 -20.5t39 -24
t25 -21l8 -8q3 3 9 8.5t25.5 20t41.5 25t56.5 19.5t70.5 9q122 0 198.5 -70.5t76.5 -201.5q0 -18 -1 -24h-372zM825 330q-6 40 -31.5 61.5t-65.5 21.5q-44 0 -70 -23t-28 -60h195zM208 256q0 -53 33 -86.5t87 -33.5q52 0 85.5 34t33.5 86q0 53 -34.5 87t-84.5 34
q-51 0 -85.5 -34t-34.5 -87z" />
    <glyph glyph-name="Racute" unicode="&#x154;" horiz-adv-x="716" 
d="M267 899l-56 77l203 176l91 -115zM60 825h295q119 0 194 -63.5t75 -181.5q0 -91 -45.5 -152.5t-123.5 -86.5l284 -341h-239l-252 326v-326h-188v825zM248 459h22q26 0 44 1t41 7t37 17t24 32t10 51t-10 51t-24 32t-37 17t-41 7t-44 1h-22v-216z" />
    <glyph glyph-name="racute" unicode="&#x155;" horiz-adv-x="498" 
d="M206 587l-56 77l203 176l91 -115zM237 270q0 8 4 22t13.5 34t32.5 34t55 14q26 0 49 -7t33 -14l10 -7l74 150q-46 32 -112 32q-28 0 -54.5 -9t-44.5 -22t-31.5 -26.5t-19.5 -22.5l-7 -9h-2v74h-177v-513h177v270z" />
    <glyph glyph-name="Rcommaaccent" unicode="&#x156;" horiz-adv-x="716" 
d="M60 825h295q119 0 194 -63.5t75 -181.5q0 -91 -45.5 -152.5t-123.5 -86.5l284 -341h-239l-252 326v-326h-188v825zM248 459h22q26 0 44 1t41 7t37 17t24 32t10 51t-10 51t-24 32t-37 17t-41 7t-44 1h-22v-216zM357 -40q-36 0 -62 -26.5t-26 -63.5q0 -29 19 -51t48 -29
q-5 -29 -20 -56.5t-27 -40.5l-12 -13l40 -31q130 107 130 221q0 38 -26.5 64t-63.5 26z" />
    <glyph glyph-name="rcommaaccent" unicode="&#x157;" horiz-adv-x="498" 
d="M237 0h-177v513h177v-74h2q2 4 6.5 10t19.5 21t32 27t44 21.5t55 9.5q29 0 57 -8t41 -16l14 -8l-74 -150q-33 28 -92 28q-32 0 -55 -14t-32.5 -34t-13.5 -34t-4 -22v-270zM148 -40q38 0 64 -26t26 -64q0 -114 -130 -221l-40 31q47 45 59 110q-29 7 -48 29t-19 51
q0 37 26 63.5t62 26.5z" />
    <glyph glyph-name="Rcaron" unicode="&#x158;" horiz-adv-x="716" 
d="M103 1061l68 91l153 -112l153 112l68 -91l-221 -162zM60 825h295q119 0 194 -63.5t75 -181.5q0 -91 -45.5 -152.5t-123.5 -86.5l284 -341h-239l-252 326v-326h-188v825zM248 459h22q26 0 44 1t41 7t37 17t24 32t10 51t-10 51t-24 32t-37 17t-41 7t-44 1h-22v-216z" />
    <glyph glyph-name="rcaron" unicode="&#x159;" horiz-adv-x="498" 
d="M28 749l68 91l153 -112l153 112l68 -91l-221 -162zM237 270q0 8 4 22t13.5 34t32.5 34t55 14q26 0 49 -7t33 -14l10 -7l74 150q-46 32 -112 32q-28 0 -54.5 -9t-44.5 -22t-31.5 -26.5t-19.5 -22.5l-7 -9h-2v74h-177v-513h177v270z" />
    <glyph glyph-name="Sacute" unicode="&#x15a;" horiz-adv-x="672" 
d="M245 899l-56 77l203 176l91 -115zM364 840q67 0 131 -19.5t95 -38.5l30 -20l-76 -150q-9 6 -25 15.5t-60 25.5t-82 16q-47 0 -72.5 -20t-25.5 -54q0 -17 12 -31.5t41 -31t51 -26.5t68 -30q80 -34 136.5 -92.5t56.5 -132.5q0 -71 -25.5 -124t-70 -83t-98.5 -44.5
t-117 -14.5q-54 0 -106 11t-87 27.5t-63 32.5t-41 27l-13 11l94 158q12 -10 33 -25.5t74.5 -41.5t94.5 -26q119 0 119 81q0 17 -8.5 31.5t-30 29t-38 23t-54 26t-55.5 26.5q-75 37 -116 92.5t-41 119.5q0 111 82 181.5t187 70.5z" />
    <glyph glyph-name="sacute" unicode="&#x15b;" horiz-adv-x="492" 
d="M195 587l-56 77l203 176l91 -115zM283 528q44 0 87 -10t64 -20l21 -10l-58 -116q-60 32 -114 32q-30 0 -42.5 -6.5t-12.5 -24.5q0 -4 1 -8t4 -7.5t5.5 -6t8.5 -5.5t9.5 -4.5t11.5 -4.5l12 -4.5t13.5 -4.5t14.5 -4q31 -9 54 -20t48.5 -30t39.5 -48t14 -66
q0 -175 -243 -175q-55 0 -104.5 17t-71.5 34l-22 18l72 121q8 -7 21 -16.5t47 -26t59 -16.5q55 0 55 37q0 17 -14 26.5t-47.5 21.5t-52.5 22q-48 25 -76 56.5t-28 83.5q0 78 60.5 121.5t163.5 43.5z" />
    <glyph glyph-name="Scaron" unicode="&#x160;" horiz-adv-x="672" 
d="M115 1061l68 91l153 -112l153 112l68 -91l-221 -162zM364 840q67 0 131 -19.5t95 -38.5l30 -20l-76 -150q-9 6 -25 15.5t-60 25.5t-82 16q-47 0 -72.5 -20t-25.5 -54q0 -17 12 -31.5t41 -31t51 -26.5t68 -30q80 -34 136.5 -92.5t56.5 -132.5q0 -71 -25.5 -124t-70 -83
t-98.5 -44.5t-117 -14.5q-54 0 -106 11t-87 27.5t-63 32.5t-41 27l-13 11l94 158q12 -10 33 -25.5t74.5 -41.5t94.5 -26q119 0 119 81q0 17 -8.5 31.5t-30 29t-38 23t-54 26t-55.5 26.5q-75 37 -116 92.5t-41 119.5q0 111 82 181.5t187 70.5z" />
    <glyph glyph-name="scaron" unicode="&#x161;" horiz-adv-x="492" 
d="M25 749l68 91l153 -112l153 112l68 -91l-221 -162zM283 528q44 0 87 -10t64 -20l21 -10l-58 -116q-60 32 -114 32q-30 0 -42.5 -6.5t-12.5 -24.5q0 -4 1 -8t4 -7.5t5.5 -6t8.5 -5.5t9.5 -4.5t11.5 -4.5l12 -4.5t13.5 -4.5t14.5 -4q31 -9 54 -20t48.5 -30t39.5 -48t14 -66
q0 -175 -243 -175q-55 0 -104.5 17t-71.5 34l-22 18l72 121q8 -7 21 -16.5t47 -26t59 -16.5q55 0 55 37q0 17 -14 26.5t-47.5 21.5t-52.5 22q-48 25 -76 56.5t-28 83.5q0 78 60.5 121.5t163.5 43.5z" />
    <glyph glyph-name="uni0162" unicode="&#x162;" horiz-adv-x="596" 
d="M204 660h-196v165h580v-165h-196v-660h-188v660zM297 -40q-36 0 -62 -26.5t-26 -63.5q0 -29 19 -51t48 -29q-5 -29 -20 -56.5t-27 -40.5l-12 -13l40 -31q130 107 130 221q0 38 -26.5 64t-63.5 26z" />
    <glyph glyph-name="uni0163" unicode="&#x163;" horiz-adv-x="395" 
d="M16 513h74v191h177v-191h108v-135h-108v-163q0 -71 40 -71q10 0 21 4t17 8l6 4l44 -143q-57 -32 -130 -32q-50 0 -86 17.5t-54.5 47t-26.5 62t-8 69.5v197h-74v135zM196 -40q38 0 64 -26t26 -64q0 -114 -130 -221l-40 31q47 45 59 110q-29 7 -48 29t-19 51q0 37 26 63.5
t62 26.5z" />
    <glyph glyph-name="Tcaron" unicode="&#x164;" horiz-adv-x="596" 
d="M77 1061l68 91l153 -112l153 112l68 -91l-221 -162zM204 660h-196v165h580v-165h-196v-660h-188v660z" />
    <glyph glyph-name="tcaron" unicode="&#x165;" horiz-adv-x="436" 
d="M476 824q38 0 64 -26t26 -64q0 -114 -130 -221l-40 31q47 45 59 110q-29 7 -48 29t-19 51q0 37 26 63.5t62 26.5zM16 513h74v191h177v-191h108v-135h-108v-163q0 -71 40 -71q10 0 21 4t17 8l6 4l44 -143q-57 -32 -130 -32q-50 0 -86 17.5t-54.5 47t-26.5 62t-8 69.5v197
h-74v135z" />
    <glyph glyph-name="Umacron" unicode="&#x16a;" horiz-adv-x="744" 
d="M168 946v120h408v-120h-408zM506 825h188v-492q0 -157 -84 -252.5t-238 -95.5t-238 95.5t-84 252.5v492h188v-437q0 -117 32 -167.5t102 -50.5t102 50.5t32 167.5v437z" />
    <glyph glyph-name="umacron" unicode="&#x16b;" horiz-adv-x="656" 
d="M124 634v120h408v-120h-408zM227 513h-177v-287q0 -128 66.5 -184.5t211.5 -56.5t211.5 56.5t66.5 184.5v287h-177v-244q0 -76 -23 -108t-78 -32t-78 32t-23 108v244z" />
    <glyph glyph-name="Uring" unicode="&#x16e;" horiz-adv-x="744" 
d="M211 1045q0 62 46.5 102t114.5 40q69 0 115 -40t46 -102q0 -63 -45 -103t-116 -40q-72 0 -116.5 40t-44.5 103zM311 1045q0 -27 17 -45.5t44 -18.5q26 0 43.5 18.5t17.5 45.5q0 26 -18 44t-43 18t-43 -18.5t-18 -43.5zM506 825h188v-532q0 -152 -82 -230t-240 -78
t-240 78t-82 230v532h188v-477q0 -100 31.5 -139t102.5 -39t102.5 39t31.5 139v477z" />
    <glyph glyph-name="uring" unicode="&#x16f;" horiz-adv-x="656" 
d="M167 733q0 62 46.5 102t114.5 40q69 0 115 -40t46 -102q0 -63 -45 -103t-116 -40q-72 0 -116.5 40t-44.5 103zM267 733q0 -27 17 -45.5t44 -18.5q26 0 43.5 18.5t17.5 45.5q0 26 -18 44t-43 18t-43 -18.5t-18 -43.5zM227 269q0 -76 23 -108t78 -32t78 32t23 108v244h177
v-287q0 -128 -66.5 -184.5t-211.5 -56.5t-211.5 56.5t-66.5 184.5v287h177v-244z" />
    <glyph glyph-name="Uhungarumlaut" unicode="&#x170;" horiz-adv-x="744" 
d="M221 897l-56 77l173 196l82 -104zM432 897l-56 77l173 196l82 -104zM506 825h188v-492q0 -157 -84 -252.5t-238 -95.5t-238 95.5t-84 252.5v492h188v-437q0 -117 32 -167.5t102 -50.5t102 50.5t32 167.5v437z" />
    <glyph glyph-name="uhungarumlaut" unicode="&#x171;" horiz-adv-x="656" 
d="M182 587l-56 77l173 196l82 -104zM393 587l-56 77l173 196l82 -104zM227 279q0 -78 23.5 -114t77.5 -36t77.5 36t23.5 114v234h177v-247q0 -133 -69 -207t-209 -74t-209 74t-69 207v247h177v-234z" />
    <glyph glyph-name="Uogonek" unicode="&#x172;" horiz-adv-x="744" 
d="M506 825h188v-492q0 -144 -71 -237t-203 -108q-50 -71 -50 -128q0 -18 11.5 -28.5t25.5 -10.5t26.5 7.5t18.5 15.5l6 7l72 -54q-2 -3 -5.5 -8t-16 -17t-27.5 -21.5t-38.5 -17.5t-49.5 -8q-47 0 -86.5 29t-39.5 88t69 144q-137 12 -211.5 105.5t-74.5 241.5v492h188v-437
q0 -117 32 -167.5t102 -50.5t102 50.5t32 167.5v437z" />
    <glyph glyph-name="uogonek" unicode="&#x173;" horiz-adv-x="656" 
d="M221 -158q0 62 69 144q-125 7 -182.5 64t-57.5 176v287h177v-244q0 -76 23 -108t78 -32t78 32t23 108v244h177v-287q0 -118 -56 -175t-178 -65q-48 -68 -48 -126q0 -18 11.5 -28.5t25.5 -10.5t26.5 7.5t18.5 15.5l6 7l72 -54q-2 -3 -5.5 -8t-16 -17t-27.5 -21.5
t-38.5 -17.5t-49.5 -8q-47 0 -86.5 29t-39.5 88z" />
    <glyph glyph-name="Ydieresis" unicode="&#x178;" horiz-adv-x="736" 
d="M249 1103q38 0 65 -27t27 -65t-27 -65t-65 -27t-65 27t-27 65t27 65t65 27zM486 1103q38 0 65 -27t27 -65t-27 -65t-65 -27t-65 27t-27 65t27 65t65 27zM274 370l-304 455h226l172 -264l172 264h226l-304 -455v-370h-188v370z" />
    <glyph glyph-name="Zacute" unicode="&#x179;" horiz-adv-x="769" 
d="M293 899l-56 77l203 176l91 -115zM74 825h679l-409 -660h382v-165h-710l408 660h-350v165z" />
    <glyph glyph-name="zacute" unicode="&#x17a;" horiz-adv-x="561" 
d="M246 587l-56 77l203 176l91 -115zM47 513h509l-254 -378h234v-135h-531l254 378h-212v135z" />
    <glyph glyph-name="Zdotaccent" unicode="&#x17b;" horiz-adv-x="769" 
d="M384 1103q38 0 65 -27t27 -65t-27 -65t-65 -27t-65 27t-27 65t27 65t65 27zM74 825h679l-409 -660h382v-165h-710l408 660h-350v165z" />
    <glyph glyph-name="zdotaccent" unicode="&#x17c;" horiz-adv-x="561" 
d="M280 791q38 0 65 -27t27 -65t-27 -65t-65 -27t-65 27t-27 65t27 65t65 27zM47 513h509l-254 -378h234v-135h-531l254 378h-212v135z" />
    <glyph glyph-name="Zcaron" unicode="&#x17d;" horiz-adv-x="769" 
d="M163 1061l68 91l153 -112l153 112l68 -91l-221 -162zM74 825h679l-409 -660h382v-165h-710l408 660h-350v165z" />
    <glyph glyph-name="zcaron" unicode="&#x17e;" horiz-adv-x="561" 
d="M60 749l68 91l153 -112l153 112l68 -91l-221 -162zM47 513h509l-254 -378h234v-135h-531l254 378h-212v135z" />
    <glyph glyph-name="Scommaaccent" unicode="&#x218;" horiz-adv-x="672" 
d="M364 840q67 0 131 -19.5t95 -38.5l30 -20l-76 -150q-9 6 -25 15.5t-60 25.5t-82 16q-47 0 -72.5 -20t-25.5 -54q0 -17 12 -31.5t41 -31t51 -26.5t68 -30q80 -34 136.5 -92.5t56.5 -132.5q0 -71 -25.5 -124t-70 -83t-98.5 -44.5t-117 -14.5q-54 0 -106 11t-87 27.5
t-63 32.5t-41 27l-13 11l94 158q12 -10 33 -25.5t74.5 -41.5t94.5 -26q119 0 119 81q0 17 -8.5 31.5t-30 29t-38 23t-54 26t-55.5 26.5q-75 37 -116 92.5t-41 119.5q0 111 82 181.5t187 70.5zM335 -40q-36 0 -62 -26.5t-26 -63.5q0 -29 19 -51t48 -29q-5 -29 -20 -56.5
t-27 -40.5l-12 -13l40 -31q130 107 130 221q0 38 -26.5 64t-63.5 26z" />
    <glyph glyph-name="scommaaccent" unicode="&#x219;" horiz-adv-x="492" 
d="M283 528q44 0 87 -10t64 -20l21 -10l-58 -116q-60 32 -114 32q-30 0 -42.5 -6.5t-12.5 -24.5q0 -4 1 -8t4 -7.5t5.5 -6t8.5 -5.5t9.5 -4.5t11.5 -4.5l12 -4.5t13.5 -4.5t14.5 -4q31 -9 54 -20t48.5 -30t39.5 -48t14 -66q0 -175 -243 -175q-55 0 -104.5 17t-71.5 34
l-22 18l72 121q8 -7 21 -16.5t47 -26t59 -16.5q55 0 55 37q0 17 -14 26.5t-47.5 21.5t-52.5 22q-48 25 -76 56.5t-28 83.5q0 78 60.5 121.5t163.5 43.5zM245 -40q-36 0 -62 -26.5t-26 -63.5q0 -29 19 -51t48 -29q-5 -29 -20 -56.5t-27 -40.5l-12 -13l40 -31q130 107 130 221
q0 38 -26.5 64t-63.5 26z" />
    <glyph glyph-name="circumflex" unicode="&#x2c6;" horiz-adv-x="582" 
d="M138 587l-68 91l221 162l221 -162l-68 -91l-153 112z" />
    <glyph glyph-name="caron" unicode="&#x2c7;" horiz-adv-x="582" 
d="M70 749l68 91l153 -112l153 112l68 -91l-221 -162z" />
    <glyph glyph-name="breve" unicode="&#x2d8;" horiz-adv-x="602" 
d="M532 809q-9 -81 -72 -131t-159 -50t-159 50t-72 131l126 31q0 -4 1.5 -11t8.5 -25t17.5 -31.5t31 -24.5t46.5 -11t46.5 10.5t31 25.5t17.5 30.5t8 26.5l2 10z" />
    <glyph glyph-name="dotaccent" unicode="&#x2d9;" horiz-adv-x="324" 
d="M162 791q38 0 65 -27t27 -65t-27 -65t-65 -27t-65 27t-27 65t27 65t65 27z" />
    <glyph glyph-name="ring" unicode="&#x2da;" horiz-adv-x="462" 
d="M70 733q0 62 46.5 102t114.5 40q69 0 115 -40t46 -102q0 -63 -45 -103t-116 -40q-72 0 -116.5 40t-44.5 103zM170 733q0 -27 17 -45.5t44 -18.5q26 0 43.5 18.5t17.5 45.5q0 26 -18 44t-43 18t-43 -18.5t-18 -43.5z" />
    <glyph glyph-name="ogonek" unicode="&#x2db;" horiz-adv-x="403" 
d="M70 -158q0 35 26 81t52 75l26 28l58 -26q-7 -8 -16.5 -21.5t-26 -50.5t-16.5 -68q0 -18 11.5 -28.5t25.5 -10.5t26.5 7.5t18.5 15.5l6 7l72 -54q-2 -3 -5.5 -8t-16 -17t-27.5 -21.5t-38.5 -17.5t-49.5 -8q-47 0 -86.5 29t-39.5 88z" />
    <glyph glyph-name="tilde" unicode="&#x2dc;" horiz-adv-x="602" 
d="M292 642q-40 19 -76 19q-14 0 -25.5 -11.5t-15.5 -23.5l-4 -11h-101q1 7 3.5 18.5t13 41t24 52.5t39 41.5t56.5 18.5q17 0 43 -6.5t43 -13.5l18 -7q40 -19 76 -19q14 0 25.5 11.5t15.5 23.5l4 11h101q-1 -7 -3.5 -18.5t-13 -41t-24 -52.5t-39 -41.5t-56.5 -18.5
q-17 0 -43 6.5t-43 13.5z" />
    <glyph glyph-name="hungarumlaut" unicode="&#x2dd;" horiz-adv-x="606" 
d="M152 587l-56 77l173 196l82 -104zM363 587l-56 77l173 196l82 -104z" />
    <glyph glyph-name="endash" unicode="&#x2013;" horiz-adv-x="540" 
d="M0 213v153h540v-153h-540z" />
    <glyph glyph-name="emdash" unicode="&#x2014;" horiz-adv-x="1080" 
d="M0 213v153h1080v-153h-1080z" />
    <glyph glyph-name="quoteleft" unicode="&#x2018;" horiz-adv-x="291" 
d="M128 476q-44 0 -74.5 31t-30.5 74q0 132 152 259l47 -37q-6 -6 -15.5 -16.5t-28.5 -44t-25 -67.5q34 -8 56 -34t22 -60q0 -44 -30 -74.5t-73 -30.5z" />
    <glyph glyph-name="quoteright" unicode="&#x2019;" horiz-adv-x="291" 
d="M163 840q43 0 74 -31t31 -74q0 -132 -152 -259l-47 37q6 6 15.5 16.5t28.5 44t25 67.5q-34 8 -56 34t-22 60q0 44 30 74.5t73 30.5z" />
    <glyph glyph-name="quotesinglbase" unicode="&#x201a;" horiz-adv-x="291" 
d="M163 214q43 0 74 -31t31 -74q0 -132 -152 -259l-47 37q6 6 15.5 16.5t28.5 44t25 67.5q-34 8 -56 34t-22 60q0 44 30 74.5t73 30.5z" />
    <glyph glyph-name="quotedblleft" unicode="&#x201c;" horiz-adv-x="545" 
d="M128 476q-44 0 -74.5 31t-30.5 74q0 132 152 259l47 -37q-6 -6 -15.5 -16.5t-28.5 -44t-25 -67.5q34 -8 56 -34t22 -60q0 -44 -30 -74.5t-73 -30.5zM381 476q-43 0 -73 30.5t-30 74.5q0 135 151 259l47 -37q-6 -6 -15.5 -16.5t-28.5 -44t-26 -67.5q35 -8 57 -34t22 -60
q0 -43 -30.5 -74t-73.5 -31z" />
    <glyph glyph-name="quotedblright" unicode="&#x201d;" horiz-adv-x="545" 
d="M164 840q43 0 73 -30.5t30 -74.5q0 -135 -151 -259l-47 37q6 6 15.5 16.5t28.5 44t26 67.5q-35 8 -57 34t-22 60q0 43 30.5 74t73.5 31zM417 840q43 0 74 -31t31 -74q0 -132 -152 -259l-47 37q6 6 15.5 16.5t28.5 44t25 67.5q-34 8 -56 34t-22 60q0 44 30 74.5t73 30.5z
" />
    <glyph glyph-name="quotedblbase" unicode="&#x201e;" horiz-adv-x="545" 
d="M164 214q43 0 73 -30.5t30 -74.5q0 -135 -151 -259l-47 37q6 6 15.5 16.5t28.5 44t26 67.5q-35 8 -57 34t-22 60q0 43 30.5 74t73.5 31zM417 214q43 0 74 -31t31 -74q0 -132 -152 -259l-47 37q6 6 15.5 16.5t28.5 44t25 67.5q-34 8 -56 34t-22 60q0 44 30 74.5t73 30.5z
" />
    <glyph glyph-name="dagger" unicode="&#x2020;" horiz-adv-x="542" 
d="M70 514v136h124v210h153v-210h125v-136h-125v-514h-153v514h-124z" />
    <glyph glyph-name="daggerdbl" unicode="&#x2021;" horiz-adv-x="542" 
d="M70 230v136h124v128h-124v136h124v230h153v-230h125v-136h-125v-128h125v-136h-125v-230h-153v230h-124z" />
    <glyph glyph-name="bullet" unicode="&#x2022;" horiz-adv-x="716" 
d="M357 553q82 0 139.5 -57.5t57.5 -139.5q0 -81 -57.5 -138t-139.5 -57q-81 0 -138 57t-57 138q0 82 57 139.5t138 57.5z" />
    <glyph glyph-name="ellipsis" unicode="&#x2026;" horiz-adv-x="1047" 
d="M174 214q48 0 81.5 -33.5t33.5 -81.5q0 -47 -33.5 -80.5t-81.5 -33.5q-47 0 -80.5 33.5t-33.5 80.5q0 48 33.5 81.5t80.5 33.5zM523 214q48 0 81.5 -33.5t33.5 -81.5q0 -47 -33.5 -80.5t-81.5 -33.5q-47 0 -80.5 33.5t-33.5 80.5q0 48 33.5 81.5t80.5 33.5zM872 214
q48 0 81.5 -33.5t33.5 -81.5q0 -47 -33.5 -80.5t-81.5 -33.5q-47 0 -80.5 33.5t-33.5 80.5q0 48 33.5 81.5t80.5 33.5z" />
    <glyph glyph-name="perthousand" unicode="&#x2030;" horiz-adv-x="1469" 
d="M23 643q0 86 64 141.5t159 55.5q93 0 156 -55.5t63 -141.5t-61.5 -141.5t-157.5 -55.5q-100 0 -161.5 55.5t-61.5 141.5zM673 825h118l-480 -825h-118zM152 643q0 -40 25.5 -65.5t66.5 -25.5q39 0 64.5 25.5t25.5 65.5t-26 66.5t-64 26.5q-39 0 -65.5 -26.5t-26.5 -66.5z
M516 182q0 86 61.5 141.5t161.5 55.5q96 0 157.5 -55.5t61.5 -141.5t-63 -141.5t-156 -55.5q-95 0 -159 55.5t-64 141.5zM1004 182q0 86 61.5 141.5t161.5 55.5q96 0 157.5 -55.5t61.5 -141.5t-63 -141.5t-156 -55.5q-95 0 -159 55.5t-64 141.5zM645 182q0 -40 26.5 -66.5
t65.5 -26.5q38 0 64 26.5t26 66.5t-25.5 65.5t-64.5 25.5q-41 0 -66.5 -25.5t-25.5 -65.5zM1133 182q0 -40 26.5 -66.5t65.5 -26.5q38 0 64 26.5t26 66.5t-25.5 65.5t-64.5 25.5q-41 0 -66.5 -25.5t-25.5 -65.5z" />
    <glyph glyph-name="guilsinglleft" unicode="&#x2039;" horiz-adv-x="375" 
d="M321 101l-93 -73l-195 250l195 250l93 -73l-138 -177z" />
    <glyph glyph-name="guilsinglright" unicode="&#x203a;" horiz-adv-x="375" 
d="M147 28l-93 73l138 177l-138 177l93 73l195 -250z" />
    <glyph glyph-name="fraction" unicode="&#x2044;" horiz-adv-x="264" 
d="M313 825h118l-480 -825h-118z" />
    <glyph glyph-name="Euro" unicode="&#x20ac;" horiz-adv-x="831" 
d="M299 442q-2 -10 -2 -28q0 -10 2 -32h347v-108h-303q75 -100 225 -100q43 0 83.5 13t59.5 25l19 13l82 -164q-4 -3 -11 -8t-32.5 -18.5t-54.5 -23.5t-76 -18t-97 -8q-139 0 -256.5 81t-165.5 208h-96v108h72q-1 9 -1 29t1 31h-72v108h96q48 127 165.5 208.5t256.5 81.5
q80 0 147.5 -19t95.5 -38l28 -19l-82 -164q-7 6 -21 14.5t-56 22.5t-85 14q-150 0 -226 -101h304v-108h-347z" />
    <glyph glyph-name="trademark" unicode="&#x2122;" horiz-adv-x="514" 
d="M17 825h183v-52h-61v-206h-61v206h-61v52zM496 567h-60l-12 153h-1l-53 -151h-35l-53 151h-1l-13 -153h-59l23 258h63l57 -148l57 148h63z" />
    <glyph glyph-name="minus" unicode="&#x2212;" horiz-adv-x="633" 
d="M60 338v153h513v-153h-513z" />
    <glyph glyph-name="notequal" unicode="&#x2260;" horiz-adv-x="633" 
d="M239 218l-86 -148h-118l86 148h-61v153h150l50 87h-200v153h289l84 144h118l-84 -144h106v-153h-195l-50 -87h245v-153h-334z" />
    <glyph glyph-name="lessequal" unicode="&#x2264;" horiz-adv-x="667" 
d="M60 485v118l547 222v-142l-358 -140l358 -138v-142zM60 0v153h547v-153h-547z" />
    <glyph glyph-name="greaterequal" unicode="&#x2265;" horiz-adv-x="667" 
d="M60 263v142l358 138l-358 140v142l547 -222v-118zM60 0v153h547v-153h-547z" />
    <glyph glyph-name="Q.2" horiz-adv-x="876" 
d="M813 -26q-83 31 -151 79q-99 -68 -228 -68q-181 0 -296 122.5t-115 305.5q0 180 120 303.5t291 123.5q172 0 291 -123.5t119 -303.5q0 -128 -61 -231q46 -22 113 -40zM226 413q0 -48 11 -89.5t34.5 -75.5t65 -53.5t97.5 -19.5q34 0 59 7q-54 50 -102 112l80 100
q56 -62 140 -119q30 57 30 138q0 101 -52 169.5t-155 68.5q-102 0 -155 -69t-53 -169z" />
    <glyph glyph-name="R.1" horiz-adv-x="722" 
d="M60 825h295q119 0 194 -63.5t75 -181.5q0 -91 -45.5 -152.5t-123.5 -86.5q21 -24 55 -65q66 -78 89 -100t44 -22q12 0 23.5 4t17.5 8l5 3l54 -136q-5 -5 -15 -13t-45.5 -21.5t-75.5 -13.5q-29 0 -57 9t-46 22t-32.5 26t-21.5 22l-6 9l-196 253v-326h-188v825zM248 459h22
q26 0 44 1t41 7t37 17t24 32t10 51t-10 51t-24 32t-37 17t-41 7t-44 1h-22v-216z" />
    <glyph glyph-name="C.alt" horiz-adv-x="723" 
d="M658 603q-61 56 -183 56q-110 0 -175.5 -73.5t-65.5 -172.5q0 -100 63 -173t178 -73q123 0 183 53v-205q-67 -30 -183 -30q-193 0 -322.5 123.5t-129.5 304.5q0 178 134.5 302.5t317.5 124.5q63 0 102 -6.5t81 -25.5v-205z" />
    <glyph glyph-name="f_f_j" horiz-adv-x="1047" 
d="M987 -79q0 -37 -9.5 -69.5t-29.5 -62t-58 -47t-88 -17.5q-20 0 -38 2t-30 4t-25 6t-18.5 6.5l-16.5 7.5t-13 6l55 143q23 -15 45 -15q49 0 49 70v423h-168v-378h-177v378h-178v-378h-177v378h-74v135h74v109q1 115 54 184t147 69q40 0 76.5 -11.5t52.5 -23.5l17 -11
l-62 -125q-24 14 -53 14q-33 0 -44 -22.5t-11 -78.5v-104h178v109q1 116 55 184.5t156 68.5q39 0 77 -8.5t64.5 -21t47.5 -24.5t31 -21l11 -8l-62 -125q-64 52 -117 52q-51 0 -68.5 -23t-17.5 -79v-104h345v-592z" />
    <glyph glyph-name="f_f_t" horiz-adv-x="1115" 
d="M36 513h74v109q1 115 54 184t147 69q40 0 76.5 -11.5t52.5 -23.5l17 -11l-62 -125q-24 14 -53 14q-33 0 -44 -22.5t-11 -78.5v-104h178v109q1 115 54 184t147 69q40 0 76.5 -11.5t53.5 -23.5l16 -11l-62 -125q-24 14 -53 14q-33 0 -44 -22.5t-11 -78.5v-104h168v191h177
v-191h108v-135h-108v-163q0 -71 40 -71q10 0 21 4t17 8l6 4l44 -143q-57 -32 -130 -32q-50 0 -86 17.5t-54.5 47t-26.5 62t-8 69.5v197h-168v-378h-177v378h-178v-378h-177v378h-74v135z" />
    <glyph glyph-name="f_j" horiz-adv-x="672" 
d="M612 -79q0 -37 -9.5 -69.5t-29.5 -62t-58 -47t-88 -17.5q-20 0 -38 2t-30 4t-25 6t-18.5 6.5l-16.5 7.5t-13 6l55 143q23 -15 45 -15q49 0 49 70v423h-168v-378h-177v378h-74v135h74v109q1 116 55 184.5t156 68.5q39 0 77 -8.5t64.5 -21t47.5 -24.5t32 -21l10 -8
l-62 -125q-64 52 -117 52q-51 0 -68.5 -23t-17.5 -79v-104h345v-592z" />
    <glyph glyph-name="f_t" horiz-adv-x="740" 
d="M16 513h74v109q1 115 54 184t147 69q40 0 76.5 -11.5t52.5 -23.5l17 -11l-62 -125q-24 14 -53 14q-33 0 -44 -22.5t-11 -78.5v-104h168v191h177v-191h108v-135h-108v-163q0 -71 40 -71q10 0 21 4t17 8l6 4l44 -143q-57 -32 -130 -32q-50 0 -86 17.5t-54.5 47t-26.5 62
t-8 69.5v197h-168v-378h-177v378h-74v135z" />
    </font>
</defs>
</svg>
